<svg height="512pt" viewBox="0 -75 512 511" width="512pt" xmlns="http://www.w3.org/2000/svg"><path d="m105 360.5h302c24.8125 0 45-20.1875 45-45v-15.8125c41.675781-8.285156 60-38.386719 60-80.675781 0-50.292969-57.207031-94.886719-101.253906-119.707031-25.078125-14.128907-52.113282-25.847657-79.886719-34.84375.085937-1.316407.140625-2.636719.140625-3.960938 0-33.085938-26.914062-60-60-60-27.617188 0-50.417969 18.519531-57.59375 43.144531-3.0625-.078125-6.121094-.132812-9.160156-.132812-44.824219 0-92.507813 8.273437-127.550782 22.132812-63.390624 25.070313-76.695312 62.621094-76.695312 89.707031 0 30.613282 11.816406 58.613282 34.175781 80.972657 8.695313 8.695312 17.171875 15.164062 25.824219 19.992187v59.183594c0 24.8125 20.1875 45 45 45zm46-30h-46c-8.269531 0-15-6.726562-15-15v-48.425781c17.273438 3.378906 36.539062 3.398437 60.132812 3.410156h.867188zm90 0h-60v-59.796875c17.433594.324219 37.121094 1.140625 60 3.222656zm90 0h-60v-53.296875c3.835938.488281 7.742188 1.007813 11.742188 1.566406 13.859374 1.941407 30.070312 5.441407 47.238281 9.144531.335937.074219.679687.148438 1.019531.222657zm91-15c0 8.273438-6.730469 15-15 15h-46v-36.113281c20.675781 4.027343 41.789062 7.289062 61 7.640625zm-151-285c14.949219 0 27.378906 10.996094 29.632812 25.324219-18.601562-4.617188-37.332031-7.996094-55.839843-10.027344 5.113281-9.175781 14.898437-15.296875 26.207031-15.296875zm-215.609375 184.609375c-16.609375-16.609375-25.390625-37.273437-25.390625-59.757813 0-25.863281 19.421875-46.660156 57.726562-61.808593 31.714844-12.542969 75.273438-20.03125 116.519532-20.03125 62.371094 0 134.0625 19.414062 191.773437 51.929687 52.230469 29.429688 85.980469 66.160156 85.980469 93.570313 0 34.339843-13.625 50.148437-46.460938 52.691406-.027343 0-.058593 0-.085937.003906-42.976563 3.292969-104.464844-16.472656-148.550781-22.648437-42.054688-5.886719-83.117188-8.554688-120.902344-8.554688-.136719 0-.265625.015625-.398438.019532-5.4375-.03125-10.582031-.035157-15.453124-.039063-46.257813-.023437-69.078126.304687-94.757813-25.375zm0 0"/></svg>