<svg height="512pt" viewBox="0 -96 512 512" width="512pt" xmlns="http://www.w3.org/2000/svg"><path d="m15 199.765625h15.011719v45c0 30.699219 11.445312 52.117187 34.039062 63.664063 18.335938 9.367187 41.363281 11.285156 70.292969 11.285156 31.699219 0 54.269531-4.160156 71.027344-13.097656 22.976562-12.257813 34.628906-33.066407 34.628906-61.851563v-15h32v15c0 28.785156 11.652344 49.59375 34.628906 61.851563 16.757813 8.9375 39.328125 13.097656 71.027344 13.097656 28.929688 0 51.957031-1.917969 70.292969-11.285156 22.59375-11.546876 34.050781-32.964844 34.050781-63.664063v-45h15c8.285156 0 15-6.714844 15-15 0-8.28125-6.714844-15-15-15h-20.730469l-72.4375-144.875c-11.382812-22.765625-38.609375-31.007813-60.371093-20.125l-33.167969 16.585937c-7.410157 3.703126-10.414063 12.714844-6.707031 20.125 3.703124 7.410157 12.714843 10.414063 20.125 6.707032l33.167968-16.585938c7.421875-3.710937 16.40625-.726562 20.121094 6.710938l65.730469 131.457031h-155.730469c-8.285156 0-15 6.71875-15 15v15h-32v-15c0-8.28125-6.714844-15-15-15h-155.730469l65.730469-131.457031c3.71875-7.441406 12.707031-10.417969 20.125-6.707032l33.167969 16.582032c7.40625 3.707031 16.417969.703125 20.125-6.707032 3.703125-7.410156.699219-16.421874-6.710938-20.125l-33.164062-16.582031c-22.019531-11.011719-49.113281-2.398437-60.375 20.125l-72.4375 144.871094h-20.730469c-8.285156 0-15 6.71875-15 15 0 8.285156 6.714844 15 15 15zm287 0h150v45c0 35.289063-15.980469 44.949219-74.34375 44.949219-62.789062 0-75.65625-17.96875-75.65625-44.949219zm-242 0h150.007812v45c0 26.980469-12.875 44.949219-75.667968 44.949219-58.359375 0-74.339844-9.660156-74.339844-44.949219zm0 0"/></svg>