<svg height="512pt" viewBox="-16 0 512 512" width="512pt" xmlns="http://www.w3.org/2000/svg"><path d="m421.171875 380.234375-32.34375-6.472656c-34.085937-6.820313-58.828125-37-58.828125-71.761719v-60h45c8.285156 0 15-6.714844 15-15v-182c0-24.8125-20.1875-45-45-45h-120c-11.515625 0-22.03125 4.355469-30 11.496094-7.96875-7.140625-18.484375-11.496094-30-11.496094h-120c-24.8125 0-45 20.1875-45 45v377c0 49.625 40.375 90 90 90h150.015625c4.621094 0 9.113281-.542969 13.433594-1.535156 5.441406 1.011718 10.992187 1.535156 16.550781 1.535156h150.015625c33.0625 0 59.980469-26.90625 60-59.984375 0-34.777344-24.75-64.964844-58.84375-71.78125zm-76.171875-350.234375c8.269531 0 15 6.730469 15 15v167h-90v-167c0-5.257812-.90625-10.308594-2.570312-15zm-180 0c8.269531 0 15 6.730469 15 15v167h-90v-167c0-5.257812-.90625-10.308594-2.570312-15zm15 212v119.035156c-18.339844-13.46875-30-35.171875-30-59.035156v-60zm60.015625 240h-150.015625c-33.085938 0-60-26.914062-60-60v-377c0-8.269531 6.730469-15 15-15s15 6.730469 15 15v182c0 8.285156 6.714844 15 15 15h45v60c0 47.101562 32.867188 86.859375 70.796875 97.949219 10.019531 3.316406 13.992187 3.386719 44.488281 9.703125 20.125 4.023437 34.730469 21.839844 34.730469 42.355468-.011719 16.535157-13.46875 29.992188-30 29.992188zm180 0h-128.082031c5.121094-8.828125 8.074218-19.066406 8.082031-29.984375 0-34.777344-24.75-64.964844-58.84375-71.777344l-31.171875-6.242187c0-11.382813 0-318.402344 0-328.996094 0-8.269531 6.726562-15 15-15 8.269531 0 15 6.730469 15 15v182c0 8.285156 6.714844 15 15 15h45v60c0 49.011719 34.882812 91.5625 82.9375 101.179688l32.347656 6.476562c20.125 4.019531 34.730469 21.835938 34.730469 42.351562-.011719 16.535157-13.46875 29.992188-30 29.992188zm0 0"/></svg>