<svg height="512pt" viewBox="0 0 512 512.001" width="512pt" xmlns="http://www.w3.org/2000/svg"><path d="m0 467c0 24.8125 20.1875 45 45 45h71.460938c17.152343 0 32.574218-9.53125 40.25-24.875l8.285156-16.570312 8.269531 16.554687c7.667969 15.355469 23.09375 24.890625 40.257813 24.890625h253.476562c24.8125 0 45-20.1875 45-45 0-9.703125 0-30.726562 0-40.347656 0-89.316406-41.867188-124.117188-99.265625-124.65625-57.039063-.542969-93.605469-35.5-111.734375-106.847656v-180.148438c0-8.285156-6.714844-15-15-15h-241c-8.285156 0-15 6.714844-15 15v239.789062c0 18.078126-4.929688 37.347657-15.066406 58.90625-9.964844 21.195313-14.933594 44.4375-14.933594 66.84375zm482 0c0 8.269531-6.726562 15-15 15h-253.476562c-5.722657 0-10.863282-3.179688-13.421876-8.296875l-10.839843-21.703125h292.738281zm-362-437h30v92h-30zm-60 224.789062v-224.789062h30v107c0 8.285156 6.714844 15 15 15h60c8.285156 0 15-6.714844 15-15v-107h91v167c0 1.214844.148438 2.425781.441406 3.609375 19.070313 76.960937 62.363282 130.640625 141.011719 131.382813 29.296875.277343 68.058594 10.03125 69.5 90.007812h-303.03125c-7.300781-50.816406-51.117187-90-103.921875-90h-35.351562c4.824218-11.699219 20.351562-40.484375 20.351562-77.210938zm-30 125.75c0-6.1875.476562-12.394531 1.386719-18.539062h43.613281c36.21875 0 66.523438 25.808594 73.492188 60h-118.492188zm0 71.460938h110.730469l-10.855469 21.707031c-2.554688 5.117188-7.699219 8.292969-13.417969 8.292969h-71.457031c-8.269531 0-15-6.730469-15-15zm0 0"/></svg>