<svg height="512pt" viewBox="-31 0 512 512" width="512pt" xmlns="http://www.w3.org/2000/svg"><path d="m450 368.910156c0-166.179687-55.558594-281.757812-60-296.660156v-57.25c0-8.285156-6.714844-15-15-15h-300c-8.285156 0-15 6.714844-15 15v57.25c-4.742188 15.914062-60 131.199219-60 296.660156v128.089844c0 8.285156 6.714844 15 15 15h420c8.285156 0 15-6.714844 15-15zm-225-338.910156h135v30h-135c-8.269531 0-15-6.730469-15-15s6.730469-15 15-15zm-135-.011719h92.578125c-1.664063 4.695313-2.578125 9.753907-2.578125 15.011719s.914062 10.304688 2.578125 15h-92.578125zm-60 452.011719v-113.089844c0-157.0625 51.972656-267.46875 55.355469-278.910156h274.644531v77c0 173.691406-141.308594 315-315 315zm390 0h-234.113281c121.488281-54.367188 204.113281-175.867188 204.113281-315v-4.699219c19.714844 66.777344 30 137.109375 30 206.609375zm0 0"/><path d="m329.972656 137c0 8.285156-6.71875 15-15 15-8.285156 0-15-6.714844-15-15s6.714844-15 15-15c8.28125 0 15 6.714844 15 15zm0 0"/><path d="m329.972656 197c0 8.285156-6.71875 15-15 15-8.285156 0-15-6.714844-15-15s6.714844-15 15-15c8.28125 0 15 6.714844 15 15zm0 0"/><path d="m329.972656 257c0 8.285156-6.71875 15-15 15-8.285156 0-15-6.714844-15-15s6.714844-15 15-15c8.28125 0 15 6.714844 15 15zm0 0"/></svg>