<svg height="512pt" viewBox="-31 0 512 512" width="512pt" xmlns="http://www.w3.org/2000/svg"><path d="m75 512h300c8.285156 0 15-6.714844 15-15v-52.25c14.449219 3.425781 29.515625 5.25 45 5.25 8.28125 0 15-6.714844 15-15 0-8.582031 0-235.027344 0-240 0-60.589844-40.128906-111.988281-95.199219-129.015625 3.316407-6.269531 5.199219-13.410156 5.199219-20.984375 0-24.8125-20.1875-45-45-45h-180c-24.8125 0-45 20.1875-45 45 0 7.574219 1.882812 14.71875 5.199219 20.984375-55.070313 17.027344-95.199219 68.425781-95.199219 129.015625v240c0 8.285156 6.714844 15 15 15 15.484375 0 30.550781-1.824219 45-5.25v52.25c0 8.285156 6.714844 15 15 15zm285-77v47h-270v-47c0-.003906 0-.007812 0-.007812 66.015625-27.609376 113.734375-90.511719 119.429688-164.992188h31.140624c5.691407 74.480469 53.414063 137.382812 119.429688 164.992188zm-120-225v30h-30v-30zm-30-30v-30h30v30zm210 15v113.785156l-34.394531-34.390625c-5.855469-5.859375-15.355469-5.859375-21.210938 0-5.859375 5.855469-5.859375 15.351563 0 21.210938l55.613281 55.605469v68.113281c-79.039062-7.152344-142.167968-70.289063-149.324218-149.324219h44.316406c8.285156 0 15-6.71875 15-15 0-8.285156-6.714844-15-15-15h-45v-30h45c8.285156 0 15-6.71875 15-15 0-8.285156-6.714844-15-15-15h-45v-30h45c8.285156 0 15-6.71875 15-15 0-8.285156-6.714844-15-15-15h-45v-30h45c57.898438 0 105 47.101562 105 105zm-285-165h180c8.269531 0 15 6.730469 15 15s-6.730469 15-15 15h-60c-8.285156 0-15 6.714844-15 15v45h-30v-45c0-8.277344-6.71875-15-15-15h-60c-8.269531 0-15-6.730469-15-15s6.730469-15 15-15zm-105 389.324219v-68.109375l55.605469-55.609375c5.859375-5.855469 5.859375-15.351563 0-21.210938-5.855469-5.859375-15.355469-5.859375-21.210938 0l-34.394531 34.390625v-113.785156c0-57.898438 47.101562-105 105-105h45v30h-45c-8.285156 0-15 6.714844-15 15s6.714844 15 15 15h45.011719v30h-45.011719c-8.285156 0-15 6.714844-15 15s6.714844 15 15 15h45.007812v30h-45.007812c-8.285156 0-15 6.714844-15 15s6.714844 14.988281 15 14.988281h44.316406c-7.15625 79.039063-70.277344 142.183594-149.316406 149.335938zm0 0"/></svg>