<svg height="512pt" viewBox="0 0 512 512.00126" width="512pt" xmlns="http://www.w3.org/2000/svg"><path d="m422.753906 4.394531c-4.183594-4.183593-10.433594-5.515625-15.960937-3.40625-8.585938 3.277344-60.003907 22.914063-68.589844 26.195313-.113281.074218-6.523437 2.175781-8.921875 9.265625 0 .003906-.003906.011719-.003906.015625l-37.234375 111.527344c-76.113281-43.640626-172.667969-31.140626-235.019531 31.207031-76.03125 76.03125-76.03125 199.746093 0 275.777343s199.742187 76.035157 275.777343 0c62.292969-62.292968 74.890625-158.832031 31.207031-235.019531l111.527344-37.230469c4.09375-1.367187 7.609375-4.570312 9.261719-8.878906l.023437-.050781c0-.003906.003907-.011719.003907-.015625l26.1875-68.574219c2.113281-5.523437.777343-11.773437-3.40625-15.957031zm-111.164062 174.804688c5.859375-5.863281 15.347656-5.863281 21.210937 0 5.863281 5.859375 5.863281 15.347656 0 21.210937l-42.425781 42.429688c-5.847656 5.847656-15.363281 5.847656-21.214844 0-5.847656-5.851563-5.847656-15.367188 0-21.214844zm-63.640625 84.851562c11.433593 11.4375 27.957031 15.757813 43.46875 11.625 16.78125 39.046875 8.4375 84.964844-22.257813 115.660157-40.960937 40.960937-107.53125 40.960937-148.496094 0-40.9375-40.941407-40.9375-107.558594 0-148.496094 30.695313-30.695313 76.613282-39.042969 115.660157-22.261719-4 15.019531-.132813 31.71875 11.625 43.472656zm63.640625 169.710938c-64.328125 64.328125-169.007813 64.34375-233.351563 0-64.335937-64.335938-64.335937-169.015625 0-233.351563 52.902344-52.898437 133.273438-63.269531 197.136719-27.425781l-22.269531 22.269531c-51.226563-24.5-112.882813-14.394531-153.652344 26.371094-52.6875 52.6875-52.691406 138.230469 0 190.921875 52.6875 52.6875 138.230469 52.691406 190.921875 0 40.769531-40.769531 50.871094-102.425781 26.371094-153.652344l22.269531-22.269531c35.84375 63.859375 25.472656 144.234375-27.425781 197.136719zm55.53125-246.472657c-.605469-11.074218-5.203125-21.402343-13.105469-29.304687s-18.230469-12.5-29.304687-13.105469l25.339843-75.90625 92.976563 92.976563zm97.910156-45.765624-94.554688-94.554688 37.9375-14.488281 71.105469 71.105469zm0 0"/></svg>