<svg height="512pt" viewBox="-121 0 512 512.00088" width="512pt" xmlns="http://www.w3.org/2000/svg"><path d="m238.417969 8.292969c-2.464844-4.929688-7.621094-8.292969-13.417969-8.292969h-180c-5.574219 0-10.84375 3.148438-13.417969 8.292969l-30 60c-2.40625 4.8125-2.046875 10.550781.9375 15.027343l59.480469 89.222657 27.492188 54.984375-29.34375 207.371094c-.660157 4.667968.914062 9.375 4.246093 12.707031l60 60c5.855469 5.859375 15.355469 5.859375 21.214844 0l60-60c3.332031-3.332031 4.90625-8.039063 4.246094-12.707031l-29.347657-207.371094 27.492188-54.984375 59.484375-89.222657c2.984375-4.480468 3.339844-10.214843.933594-15.027343zm-39.910157 21.707031-18 30h-91.015624l-18-30zm-54 90h-19.015624l-18-30h55.015624zm31.34375 49.757812-20.121093 40.242188h-41.460938l-20.121093-40.242188 27.660156-19.757812h26.386718zm-96.964843-25.96875-46.578125-69.867187 13.886718-27.773437 50.820313 84.695312zm56.113281 331.996094-44.097656-44.097656 27.125-191.6875h33.945312l27.128906 191.6875zm56.113281-331.996094-18.125-12.945312 50.816407-84.695312 13.886718 27.773437zm0 0"/></svg>