<svg height="512pt" viewBox="0 0 511 512" width="512pt" xmlns="http://www.w3.org/2000/svg"><path d="m.949219 234.296875c.003906.035156.011719.070313.015625.109375l30.699218 203.828125c1.105469 7.339844 7.410157 12.765625 14.832032 12.765625h45v46c0 8.285156 6.714844 15 15 15h300c8.285156 0 15-6.714844 15-15v-46h45c7.421875 0 13.730468-5.429688 14.832031-12.769531l30.699219-203.988281c.003906-.035157.011718-.074219.015625-.109376.984375-6.878906.339843-14-1.855469-20.59375-.015625-.046874-.03125-.09375-.046875-.140624l-54.234375-157.59375c-4.90625-14.636719-16.769531-25.605469-31.75-29.351563-20.921875-5.230469-82.964844-20.742187-104.023438-26.003906-1.132812-.285157-2.609374-.449219-3.636718-.449219h-120c-1.101563 0-2.75.222656-3.699219.464844-21.898437 5.570312-83.035156 21.121094-102.238281 26.007812-14.703125 3.742188-26.441406 14.523438-31.417969 28.851563l-56.136719 157.796875c-.015625.046875-.035156.09375-.050781.136718-2.316406 6.722657-3.0117188 14-2.003906 21.039063zm90.546875 186.703125h-32.089844l-4.519531-30h36.609375zm362.089844 0h-32.089844v-30h36.605468zm-64.335938-372.351562 27.632812 6.910156c5 1.25 8.960938 4.917968 10.589844 9.808594.015625.046874.03125.089843.046875.136718l54.226563 157.578125c.710937 2.164063.921875 4.5.605468 6.757813l-19.738281 131.160156h-41.117187v-166c0-8.285156-6.714844-15-15-15s-15 6.714844-15 15v204.785156l-64.394532-64.390625c-5.855468-5.859375-15.355468-5.859375-21.214843 0-5.855469 5.855469-5.855469 15.351563 0 21.210938l85.609375 85.609375v39.785156c-13.988282 0-101.753906 0-120 0 0-16.46875 0-243.40625 0-249.5 6.414062-6.847656 101.195312-59.058594 117.753906-183.851562zm-58.222656-14.554688 28.925781 7.230469c-5.667969 48.289062-26.742187 93.082031-59.792969 128.074219 18.074219-42.820313 28.59375-88.886719 30.867188-135.304688zm-29.851563-4.09375c-3.882812 93.339844-41.636719 153.597656-44.679687 161.460938-2.898438-7.496094-40.824219-68.757813-44.683594-161.460938zm-119.207031 4.175781c2.28125 46.386719 12.796875 92.425781 30.859375 135.21875-32.996094-34.945312-54.0625-79.660156-59.765625-127.867187zm-150.671875 188.921875 56.125-157.765625c.019531-.046875.035156-.09375.050781-.136719 1.652344-4.792968 5.570313-8.398437 10.480469-9.648437l25.832031-6.570313c16.699219 124.59375 111.28125 176.664063 117.710938 183.523438v249.5c-17.71875 0-106.074219 0-120 0v-39.785156l85.605468-85.609375c5.859376-5.855469 5.859376-15.351563 0-21.210938-5.855468-5.859375-15.355468-5.859375-21.214843 0l-64.390625 64.390625v-204.785156c0-8.285156-6.714844-15-15-15s-15 6.714844-15 15v166h-41.125l-19.730469-130.992188c-.324219-2.3125-.097656-4.699218.65625-6.910156zm0 0"/></svg>