<svg height="512pt" viewBox="0 -31 512 512" width="512pt" xmlns="http://www.w3.org/2000/svg"><path d="m482 163.757812v-28.757812c0-24.8125-20.1875-45-45-45h-45v-15c0-41.355469-33.644531-75-75-75h-121c-41.355469 0-75 33.644531-75 75v15h-46c-24.8125 0-45 20.1875-45 45v28.757812c-29.703125 180.917969-30 173.859376-30 188.121094 0 54.105469 44.015625 98.121094 98.121094 98.121094h315.757812c54.105469 0 98.121094-44.015625 98.121094-98.121094 0-14.246094-.28125-7.09375-30-188.121094zm-45-43.757812c8.269531 0 15 6.730469 15 15v30c0 24.8125-20.1875 45-45 45h-75v-90zm-286-45c0-24.8125 20.1875-45 45-45h121c24.8125 0 45 20.1875 45 45v15h-211zm151 45v152.574219c0 3.972656-1.535156 7.707031-4.320312 10.535156l-30.898438 29.898437c-.058594.058594-.117188.113282-.175781.171876-2.832031 2.832031-6.597657 4.394531-10.605469 4.394531s-7.773438-1.5625-10.605469-4.394531l-30-30c-2.835937-2.832032-4.394531-6.601563-4.394531-10.605469v-152.574219zm-242 15c0-8.269531 6.730469-15 15-15h106v90h-76c-24.8125 0-45-20.1875-45-45zm353.878906 285h-315.757812c-37.5625 0-68.121094-30.558594-68.121094-68.121094 0-9.90625.125-4.507812 21.464844-134.425781 13.621094 13.902344 32.582031 22.546875 53.535156 22.546875h76v32.574219c0 12.019531 4.679688 23.320312 13.179688 31.820312l30 30c8.5 8.5 19.800781 13.179688 31.820312 13.179688 11.976562 0 23.234375-4.644531 31.726562-13.085938l30.917969-29.921875c.058594-.058594.117188-.113281.175781-.171875 8.5-8.5 13.179688-19.800781 13.179688-31.820312v-32.574219h75c20.953125 0 39.914062-8.644531 53.535156-22.546875 21.355469 130.019531 21.464844 124.519531 21.464844 134.425781 0 37.5625-30.558594 68.121094-68.121094 68.121094zm0 0"/><path d="m270.972656 255c0 8.285156-6.71875 15-15 15-8.285156 0-15-6.714844-15-15s6.714844-15 15-15c8.28125 0 15 6.714844 15 15zm0 0"/></svg>