<svg height="512pt" viewBox="0 0 512 512" width="512pt" xmlns="http://www.w3.org/2000/svg"><path d="m377 332h-242c-8.285156 0-15 6.714844-15 15v90c0 8.285156 6.714844 15 15 15h242c8.285156 0 15-6.714844 15-15v-90c0-8.285156-6.714844-15-15-15zm-15 90h-212v-60h212zm0 0"/><path d="m467 302h-15v-47c0-92.472656-64.902344-169.605469-151-189.804688v-20.195312c0-24.8125-20.1875-45-45-45s-45 20.1875-45 45v20.195312c-86.171875 20.21875-151 97.414063-151 189.804688v47h-15c-24.8125 0-45 20.1875-45 45v60c0 24.8125 20.1875 45 45 45h15v15c0 24.8125 20.1875 45 45 45h302c24.8125 0 45-20.1875 45-45v-15h15c24.8125 0 45-20.1875 45-45v-60c0-24.8125-20.1875-45-45-45zm-407 120h-15c-8.269531 0-15-6.730469-15-15v-15h30zm0-60h-30v-15c0-8.269531 6.730469-15 15-15h15zm181-317c0-8.269531 6.730469-15 15-15s15 6.730469 15 15v15.566406c-4.953125-.375-9.953125-.566406-15-.566406s-10.046875.191406-15 .566406zm-91 83.121094c28.773438-23.792969 65.734375-38.121094 106-38.121094s77.226562 14.328125 106 38.121094v6.878906c0 41.132812-24.300781 77.820312-61 94.953125v-4.953125c0-8.285156-6.714844-15-15-15h-60c-8.285156 0-15 6.714844-15 15v4.953125c-36.699219-17.132813-61-53.820313-61-94.953125zm121 111.878906v15c0 8.269531-6.730469 15-15 15s-15-6.730469-15-15v-15zm151 227c0 8.269531-6.730469 15-15 15h-302c-8.269531 0-15-6.730469-15-15v-212c0-36.308594 11.867188-69.90625 31.9375-97.1875 8.371094 48.625 43.636719 88.691406 89.707031 104.722656 3.59375 21.238282 22.109375 37.464844 44.355469 37.464844s40.761719-16.226562 44.355469-37.464844c45.9375-15.984375 81.308593-55.953125 89.707031-104.722656 20.070312 27.28125 31.9375 60.878906 31.9375 97.1875zm60-60c0 8.269531-6.730469 15-15 15h-15v-30h30zm0-45h-30v-30h15c8.269531 0 15 6.730469 15 15zm0 0"/></svg>