<svg height="512pt" viewBox="0 0 512 512" width="512pt" xmlns="http://www.w3.org/2000/svg"><path d="m15 512h482c8.285156 0 15-6.714844 15-15s-6.714844-15-15-15h-78.6875c-2.746094-13.824219-52.839844-266.027344-55.585938-279.847656-.648437-3.253906-.191406-6.679688 1.292969-9.652344l85.394531-170.792969c2.941407-5.878906 1.710938-12.992187-3.039062-17.542969-4.753906-4.546874-11.910156-5.46875-17.660156-2.277343l-257.589844 143.109375c-11.828125 6.570312-20.003906 17.972656-22.425781 31.300781-16.085938 89.046875-52.152344 288.671875-55.230469 305.703125h-78.46875c-8.285156 0-15 6.714844-15 15s6.714844 15 15 15zm354.652344-121h-38.652344v-60h26.734375zm-191.433594-209.351562c.808594-4.4375 3.53125-8.238282 7.476562-10.429688l215.203126-119.558594-63.710938 127.425782c-4.453125 8.90625-5.828125 19.1875-3.882812 28.929687l18.46875 92.984375h-195.117188zm77.78125 179.351562c8.285156 0 15-6.714844 15-15v-15h30v60h-90v-60h30v15c0 8.285156 6.714844 15 15 15zm-104.765625-30h29.765625v60h-40.605469zm-16.261719 90h240.636719l12.117187 61h-263.773437zm0 0"/></svg>