<svg height="512pt" viewBox="0 0 512.0006 512" width="512pt" xmlns="http://www.w3.org/2000/svg"><path d="m505.300781 177.074219-81.71875-130.730469c-5.476562-8.910156-13.9375-15.667969-23.84375-19.035156l-77.578125-26.394532c-3.902344-1.433593-8.339844-1.191406-12.125.796876-33.628906 16.714843-73.726562 16.671874-107.328125-.125-.015625-.007813-.03125-.015626-.046875-.023438-3.609375-1.796875-7.808594-2.015625-11.488281-.761719l-77.914063 26.507813c-9.890624 3.363281-18.347656 10.109375-23.820312 19.003906l-82.695312 130.691406c-.039063.0625-.078126.125-.117188.1875-5.902344 9.648438-7.957031 21.070313-5.777344 32.167969.011719.054687.023438.105469.03125.15625l47.578125 229.519531c1.445313 6.964844 7.578125 11.957032 14.691407 11.957032h34.203124l-6.199218 43.902343c-.609375 4.300781.679687 8.652344 3.527344 11.933594 2.847656 3.277344 6.976562 5.164063 11.324218 5.164063h300.992188c9.125 0 16.125-8.082032 14.851562-17.097657l-6.199218-43.902343h34.207031c7.132812 0 13.277343-5.027344 14.699219-12.015626l46.597656-229.617187c2.179687-11.097656.128906-22.523437-5.777344-32.167969-.027344-.039062-.050781-.078125-.074219-.117187zm-294.300781-139.871094c29.53125 9.328125 61.46875 9.328125 91 0v.714844c0 32.320312-17.828125 62.9375-46 79.96875-27.9375-16.894531-45-46.882813-45-79.96875zm-109.410156 383.789063h-26.234375l-6.21875-30h36.6875zm336.003906 0h-26.183594l-4.234375-30h36.503907zm44.136719-217.507813-31.960938 157.507813h-46.832031l-6.226562-44.082032c-2.617188-18.289062 1.589843-36.832031 11.839843-52.203125 27.664063-41.5 22.148438-97.21875-13.117187-132.488281l-7.832032-7.828125c-5.855468-5.859375-15.351562-5.859375-21.210937 0s-5.859375 15.355469 0 21.210937l7.828125 7.832032c25.191406 25.191406 29.132812 64.988281 9.371094 94.628906-14.351563 21.527344-20.238282 47.484375-16.582032 73.070312.480469 3.429688 13.613282 96.363282 22.722657 160.859376h-266.460938c1.417969-10.035157 19.648438-138.953126 22.71875-160.835938 3.65625-25.609375-2.230469-51.566406-16.578125-73.09375-19.761718-29.640625-15.820312-69.4375 9.367188-94.628906l7.832031-7.832032c5.855469-5.855468 5.855469-15.351562 0-21.210937s-15.355469-5.859375-21.214844 0l-7.828125 7.828125c-35.269531 35.269531-40.785156 90.984375-13.117187 132.488281 10.25 15.371094 14.453125 33.914063 11.835937 52.230469l-6.222656 44.054688h-47.144531l-32.644531-157.480469c-.703126-3.648438-.03125-7.394531 1.890624-10.574219l82.679688-130.671875c.039062-.0625.078125-.125.117188-.191406 1.824218-2.980469 4.652343-5.238281 7.960937-6.367188l58.078125-19.757812v1.96875c0 22.960937 6.382812 45.417969 18.449219 64.949219 10.410156 16.835937 24.660156 30.855468 41.550781 40.980468v81.148438c0 8.28125 6.714844 15 15 15s15-6.71875 15-15v-81.140625c37.335938-22.351563 61-62.964844 61-105.9375v-1.972657l58.078125 19.761719c3.308594 1.125 6.136719 3.386719 7.960937 6.367188.023438.039062.050782.082031.074219.121093l81.707031 130.710938c1.941407 3.207031 2.617188 6.992188 1.910157 10.578125zm0 0"/></svg>