<svg height="512pt" viewBox="0 -76 512 512" width="512pt" xmlns="http://www.w3.org/2000/svg"><path d="m422 241.078125v-76.078125c0-13.457031-1.632812-26.789062-4.835938-39.738281 1.164063-2.292969 2.144532-4.695313 2.902344-7.195313 18.460938-5.609375 31.933594-22.796875 31.933594-43.066406s-13.472656-37.453125-31.933594-43.066406c-5.613281-18.460938-22.796875-31.933594-43.066406-31.933594-16.246094 0-30.503906 8.660156-38.414062 21.597656-27.070313-15.328125-58.441407-22.867187-90.242188-21.421875-88.980469 4.03125-158.34375 81.785157-158.34375 171.535157v69.367187c-50.816406 7.300781-90 51.117187-90 103.921875 0 8.285156 6.714844 15 15 15h482c8.285156 0 15-6.714844 15-15 0-52.804688-39.183594-96.621094-90-103.921875zm-75-181.078125c.148438 0 .292969-.019531.441406-.023438 8.085938-.230468 14.425782-6.8125 14.546875-14.738281 0-.078125.011719-.15625.011719-.238281 0-8.269531 6.730469-15 15-15s15 6.730469 15 15c0 8.285156 6.714844 15 15 15 8.269531 0 15 6.730469 15 15s-6.730469 15-15 15c-8.285156 0-15 6.714844-15 15 0 8.269531-6.730469 15-15 15s-15-6.730469-15-15c0-8.285156-6.714844-15-15-15-8.269531 0-15-6.730469-15-15s6.730469-15 15-15zm-227 111.710938c0-74.820313 58.183594-138.328126 129.703125-141.566407 22.847656-1.035156 45.371094 3.539063 65.476563 13.078125-8.132813 8.144532-13.179688 19.378906-13.179688 31.777344 0 20.269531 13.472656 37.457031 31.933594 43.066406 5.613281 18.460938 22.796875 31.933594 43.066406 31.933594 4.847656 0 9.515625-.777344 13.894531-2.203125.722657 5.683594 1.105469 11.429687 1.105469 17.203125v15h-62.578125c-6.195313-17.457031-22.867187-30-42.421875-30h-62c-19.554688 0-36.226562 12.542969-42.421875 30h-62.578125zm272 38.289062v30h-60v-30zm-136 0c8.285156 0 15-6.714844 15-15v-15h16c8.269531 0 15 6.730469 15 15v45h-92v-45c0-8.269531 6.730469-15 15-15h16v15c0 8.285156 6.714844 15 15 15zm-136 0h60v30h-60zm-88.492188 120c6.96875-34.191406 37.273438-60 73.492188-60h302c36.21875 0 66.523438 25.808594 73.492188 60zm0 0"/><path d="m391.972656 75c0 8.285156-6.71875 15-15 15-8.285156 0-15-6.714844-15-15s6.714844-15 15-15c8.28125 0 15 6.714844 15 15zm0 0"/></svg>