<svg height="511pt" viewBox="-11 1 511 511.999" width="511pt" xmlns="http://www.w3.org/2000/svg"><path d="m18.832031 87.195312c-15.035156 37.414063-20.683593 78.128907-17.453125 116.894532l6.878906 82.863281c0 .015625-.003906.03125-.003906.042969 0 .800781.082032 1.574218.203125 2.339844l15.058594 181.398437c1.925781 23.140625 21.625 41.265625 44.84375 41.265625h187.542969c20.035156 0 38.867187-7.804688 53.03125-21.96875l131.839844-131.839844 44.351562-35.480468c6.074219-4.859376 7.425781-13.558594 3.109375-20.03125l-60-90c-2.332031-3.5-6.023437-5.859376-10.179687-6.503907-4.152344-.644531-8.386719.484375-11.671876 3.109375l-44.492187 35.59375-47.785156 31.859375 6.027343-72.640625c3.242188-38.933594-2.476562-79.625-17.453124-116.898437-2.910157-7.238281-7.824219-13.417969-13.984376-18.050781 4.460938-6.984376 7.058594-15.265626 7.058594-24.148438 0-24.8125-20.1875-45-45-45h-180c-24.8125 0-45 20.1875-45 45 0 8.882812 2.585938 17.171875 7.046875 24.152344-6.15625 4.628906-11.0625 10.808594-13.96875 18.042968zm393.515625 155.738282 43.296875 64.945312-21.484375 17.1875-43.296875-64.945312zm-123.691406-92.933594c2.457031 17.023438 3.015625 34.378906 1.578125 51.609375l-5.835937 70.390625h-33.644532c-8.269531 0-15-6.730469-15-15v-92c0-8.273438 6.730469-15 15-15zm-241.984375-51.621094c2.011719-5.011718 7.472656-8.378906 13.585937-8.378906h40.496094c8.285156 0 15-6.71875 15-15 0-8.285156-6.714844-15-15-15l-30.105468.007812c-8.222657-.058593-14.894532-6.773437-14.894532-15.007812 0-8.273438 6.730469-15 15-15h180c8.273438 0 15 6.726562 15 15 0 8.269531-6.726562 15-15 15h-30c-8.28125 0-15 6.714844-15 15 0 8.28125 6.71875 15 15 15h40.5c6.113282 0 11.574219 3.367188 13.589844 8.382812 2.835938 7.058594 5.28125 14.28125 7.382812 21.617188h-31.46875c-24.816406 0-45 20.1875-45 45v92c0 24.8125 20.183594 45 45 45h31.15625l-8.605468 103.757812c-.683594 8.257813 5.453125 15.503907 13.707031 16.1875 8.238281.6875 15.503906-5.4375 16.191406-13.707031l7.738281-93.335937 55.652344-37.101563 44.859375 67.285157-123.734375 123.734374c-8.5 8.496094-19.800781 13.179688-31.820312 13.179688h-65.109375c-.011719 0-.023438-.003906-.039063-.003906h-.039062c-3.992188-.007813-7.742188-1.566406-10.566406-4.390625-2.832032-2.832031-4.394532-6.597657-4.394532-10.605469v-332c0-8.285156-6.714844-15-15-15s-15 6.714844-15 15v332c0 5.191406.878906 10.246094 2.554688 15h-79.949219c-7.738281 0-14.304687-6.042969-14.949219-13.75l-13.800781-166.25h31.144531c24.8125 0 45-20.1875 45-45v-92c0-24.8125-20.1875-45-45-45h-31.46875c2.101563-7.335938 4.546875-14.5625 7.386719-21.621094zm-13.820313 51.621094h37.902344c8.269532 0 15 6.726562 15 15v92c0 8.269531-6.730468 15-15 15h-33.636718l-5.84375-70.398438c-1.433594-17.226562-.878907-34.578124 1.578124-51.601562zm0 0"/></svg>