<svg height="512pt" viewBox="0 0 512 512" width="512pt" xmlns="http://www.w3.org/2000/svg"><path d="m391.128906 188.199219c-3.113281-15.640625-14.359375-28.378907-29.128906-33.621094v-49.578125c0-57.898438-47.550781-105-106-105s-106 47.101562-106 105v49.578125c-14.769531 5.242187-26.015625 17.980469-29.128906 33.621094-70.90625 22.308593-120.871094 114.183593-120.871094 188.800781 0 83.269531 63.226562 135 165 135h182c101.773438 0 165-51.730469 165-135 0-74.53125-49.847656-166.457031-120.871094-188.800781zm-44.128906-6.199219c8.269531 0 15 6.730469 15 15s-6.730469 15-15 15-15-6.730469-15-15 6.730469-15 15-15zm-167-77c0-41.355469 34.09375-75 76-75s76 33.644531 76 75v49.578125c-12.765625 4.527344-22.894531 14.65625-27.421875 27.421875h-97.15625c-4.527344-12.765625-14.65625-22.894531-27.421875-27.421875zm-15 77c8.269531 0 15 6.730469 15 15s-6.730469 15-15 15-15-6.730469-15-15 6.730469-15 15-15zm-39.605469 36.34375c7.613281 14.074219 22.511719 23.65625 39.605469 23.65625 19.554688 0 36.226562-12.542969 42.421875-30h97.15625c6.195313 17.457031 22.867187 30 42.421875 30 17.09375 0 31.992188-9.582031 39.605469-23.65625 18.003906 6.75 35.296875 19.921875 50.496093 38.417969l-137.734374 78.25c-5.261719-19.007813-22.707032-33.011719-43.367188-33.011719s-38.105469 14.003906-43.367188 33.011719l-137.734374-78.25c15.199218-18.496094 32.492187-31.667969 50.496093-38.417969zm115.605469 263.65625h-76c-74.128906 0-135-30.820312-135-105 0-30.53125 10.277344-65.660156 27.734375-95.488281l153.265625 87.074219v8.414062c0 19.554688 12.539062 36.226562 30 42.421875zm15-90c-8.269531 0-15-6.730469-15-15v-30c0-8.269531 6.730469-15 15-15s15 6.730469 15 15v30c0 8.269531-6.730469 15-15 15zm91 90h-76v-62.578125c17.460938-6.195313 30-22.867187 30-42.421875v-8.414062l153.265625-87.074219c17.457031 29.828125 27.734375 64.957031 27.734375 95.488281 0 74.105469-60.765625 105-135 105zm0 0"/></svg>