<svg height="512pt" viewBox="0 0 512 512" width="512pt" xmlns="http://www.w3.org/2000/svg"><path d="m.464844 234.339844 30.699218 203.894531c1.105469 7.335937 7.410157 12.765625 14.832032 12.765625h45v46c0 8.285156 6.714844 15 15 15h120c8.28125 0 15-6.714844 15-15v-16h30v16c0 8.285156 6.714844 15 15 15h121c8.28125 0 15-6.714844 15-15v-46h45c7.449218 0 13.769531-5.46875 14.84375-12.839844l29.703125-203.929687c.996093-6.976563.324219-14.1875-1.964844-20.914063l-54.84375-159.128906c-4.476563-13.167969-15.019531-23.6875-28.253906-28.160156l-75.742188-25.257813c-.027343-.007812-.054687-.011719-.082031-.023437-1.535156-.5-3.214844-.746094-4.660156-.746094h-180c-1.566406 0-3.191406.265625-4.695313.761719-.035156.011719-.074219.015625-.109375.027343l-74.742187 25.261719c-13.148438 4.441407-23.675781 14.929688-28.167969 28.0625l-55.839844 159.121094c-.015625.046875-.03125.089844-.046875.136719-2.269531 6.671875-2.941406 13.882812-1.945312 20.859375.003906.035156.011719.074219.015625.109375zm90.53125 186.660156h-32.089844l-4.519531-30h36.609375zm363.027344 0h-32.027344v-30h36.394531zm-94.984376-385.839844 57.894532 19.308594c4.394531 1.484375 7.90625 4.992188 9.417968 9.4375l54.84375 159.128906c.757813 2.222656.980469 4.625.65625 6.910156l-19.089843 131.054688h-40.765625v-196c0-8.285156-6.71875-15-15-15-8.285156 0-15 6.714844-15 15v235.050781l-36.171875-35.792969c-5.886719-5.828124-15.386719-5.777343-21.210938.109376-5.828125 5.886718-5.777343 15.386718.109375 21.210937l57.273438 56.679687v39.742188h-91v-372.105469c30.1875-14.328125 51.675781-42.261719 58.042968-74.734375zm-29.566406-5.160156c-5.203125 25.421875-23.382812 46.867188-48.476562 55.734375-5.992188 2.121094-10 7.785156-10 14.144531v351.121094h-30v-351.121094c0-6.355468-4.007813-12.023437-10-14.144531-25.097656-8.867187-43.273438-30.3125-48.476563-55.734375zm-298.695312 193.089844 55.832031-159.105469c.019531-.042969.03125-.089844.050781-.136719 1.492188-4.386718 5.003906-7.894531 9.394532-9.378906l56.914062-19.234375c6.386719 32.441406 27.863281 60.34375 58.027344 74.660156v372.105469h-90v-39.917969l55.042968-56.71875c5.769532-5.945312 5.628907-15.441406-.316406-21.210937-5.945312-5.765625-15.441406-5.628906-21.210937.320312l-33.515625 34.53125v-234.003906c0-8.285156-6.71875-15-15-15-8.285156 0-15 6.714844-15 15v196h-41.125l-19.730469-131.058594c-.320313-2.292968-.101563-4.660156.636719-6.851562zm0 0"/></svg>