<svg height="512pt" viewBox="0 -91 512 512" width="512pt" xmlns="http://www.w3.org/2000/svg"><path d="m15 120c-8.285156 0-15 6.714844-15 15s6.714844 15 15 15h105v105c0 41.355469 33.644531 75 75 75h302c8.285156 0 15-6.714844 15-15s-6.714844-15-15-15h-45v-30h45c8.285156 0 15-6.714844 15-15s-6.714844-15-15-15h-45v-30h45c8.285156 0 15-6.714844 15-15s-6.714844-15-15-15c-21.414062 0-83.632812 0-105 0v-120c0-33.085938-26.914062-60-60-60-166.5625 0-128.289062 0-317 0-8.285156 0-15 6.714844-15 15s6.714844 15 15 15h45v30h-45c-8.285156 0-15 6.714844-15 15s6.714844 15 15 15h45v30zm377 90h30v90h-30zm-242-180h182c16.542969 0 30 13.457031 30 30s-13.457031 30-30 30h-152c-10.925781 0-21.167969 2.949219-30 8.070312zm30 90h152c10.925781 0 21.167969-2.949219 30-8.070312v68.070312h-182c-16.542969 0-30-13.457031-30-30s13.457031-30 30-30zm-30 81.949219c8.828125 5.117187 19.078125 8.050781 30 8.050781h182v90h-167c-24.8125 0-45-20.1875-45-45zm-60-171.949219h30v90h-30zm0 0"/></svg>