<svg height="512pt" viewBox="0 -76 512 512" width="512pt" xmlns="http://www.w3.org/2000/svg"><path d="m45 360h73.460938c17.152343 0 32.574218-9.53125 40.246093-24.875l8.285157-16.570312 8.273437 16.554687c7.667969 15.351563 23.089844 24.890625 40.253906 24.890625h251.480469c24.8125 0 45-20.1875 45-45 0-8.75 0-25.914062 0-34.867188 0-65.839843-47.792969-124.128906-112.691406-130.898437-9.550782-.996094-18.84375-2.96875-27.785156-5.796875 16.261718-4.136719 31.695312-13.441406 46.082031-27.832031 5.859375-5.855469 5.859375-15.351563 0-21.210938-5.855469-5.859375-15.351563-5.859375-21.210938 0-14.605469 14.601563-29.996093 21.84375-45.777343 21.503907-12.148438-.253907-23.125-4.863282-31.644532-9.972657l46.253906-19.773437c.089844-.039063.179688-.082032.269532-.121094 16.101562-7.265625 26.503906-23.371094 26.503906-41.03125 0-24.8125-20.1875-45-45-45-17.660156 0-33.765625 10.402344-41.03125 26.503906-.039062.089844-.078125.179688-.117188.269532l-18.9375 44.289062c-4.675781-9.332031-8.394531-19.257812-10.976562-29.671875-1.65625-6.691406-7.664062-11.390625-14.558594-11.390625h-216.378906c-3.980469 0-7.792969 1.578125-10.605469 4.394531-2.816406 2.8125-4.394531 6.628907-4.394531 10.605469v57.789062c0 18.074219-4.929688 37.34375-15.066406 58.90625-9.984375 21.230469-14.933594 44.480469-14.933594 66.84375v86.460938c0 24.8125 20.1875 45 45 45zm437-45c0 8.269531-6.730469 15-15 15h-251.480469c-5.71875 0-10.859375-3.179688-13.417969-8.296875l-10.839843-21.703125h290.738281zm-120.328125-143.144531c11.144531 3.554687 22.699219 5.980469 34.523437 7.214843 44.933594 4.6875 80.773438 43.714844 85.3125 90.929688h-300.582031c-1.523437-10.589844-4.625-20.671875-9.070312-30h115.144531c39.042969 0 71.199219-29.992188 74.671875-68.144531zm-28.304687-133.125c2.445312-5.308594 7.785156-8.730469 13.632812-8.730469 8.269531 0 15 6.730469 15 15 0 5.847656-3.421875 11.1875-8.730469 13.636719l-34.769531 14.863281zm-291.285157 135.730469c12.058594-25.640626 17.917969-49.085938 17.917969-71.671876v-42.800781h190.046875c9.765625 30.5625 27.511719 57.484375 51.792969 78.367188 9.660156 8.3125 20.097656 15.453125 31.136718 21.363281-.621093 1.644531-.976562 3.417969-.976562 5.28125 0 24.8125-20.1875 45-45 45h-136.597656c-18.945313-18.546875-44.859375-30-73.402344-30h-37.351562c.769531-1.863281 1.574218-3.714844 2.433593-5.539062zm-12.082031 54.078124c0-6.191406.476562-12.394531 1.386719-18.539062h45.613281c36.21875 0 66.523438 25.808594 73.492188 60h-120.492188zm0 71.460938h112.730469l-10.855469 21.707031c-2.558594 5.117188-7.699219 8.292969-13.417969 8.292969h-73.457031c-8.269531 0-15-6.730469-15-15zm0 0"/><path d="m241.972656 105c0 8.285156-6.71875 15-15 15-8.285156 0-15-6.714844-15-15s6.714844-15 15-15c8.28125 0 15 6.714844 15 15zm0 0"/><path d="m301.972656 165c0 8.285156-6.71875 15-15 15-8.285156 0-15-6.714844-15-15s6.714844-15 15-15c8.28125 0 15 6.714844 15 15zm0 0"/></svg>