<svg height="512pt" viewBox="-31 0 511 512" width="512pt" xmlns="http://www.w3.org/2000/svg"><path d="m345.5 0h-240c-8.28125 0-15 6.714844-15 15v56.460938c-2.460938 4.550781-45.40625 61.125-64.320312 150.617187-.148438.546875-.269532 1.109375-.355469 1.683594-2.628907 12.699219-4.671875 25.523437-6.101563 38.417969l-19.132812 173.175781c-.6250002 5.675781 2.023437 11.21875 6.839844 14.289062 3.992187 2.546875 99.082031 62.355469 218.070312 62.355469s214.078125-59.808594 218.070312-62.355469c4.816407-3.074219 7.464844-8.613281 6.839844-14.292969l-19.132812-173.179687c-1.429688-12.894531-3.472656-25.722656-6.101563-38.417969-.085937-.570312-.203125-1.125-.351562-1.667968-11.003907-52.0625-31.914063-102.007813-61.441407-146.304688l-2.882812-4.320312v-56.460938c0-8.285156-6.714844-15-15-15zm-75 30h60v31c-17.847656 0-41.777344 0-60 0zm-60 0h30v31h-30zm-90 0h60v31c-18.226562 0-42.152344 0-60 0zm-6.972656 61h6.972656v75c0 24.8125-20.1875 45-45 45h-15.910156c18.117187-69.863281 49.757812-112.425781 53.9375-120zm287.933594 174.472656 18.0625 163.519532c-10.414063 5.84375-30.601563 16.351562-57.433594 26.480468l-16.3125-147.898437c-.910156-8.234375-8.308594-14.175781-16.554688-13.265625-8.234375.90625-14.175781 8.320312-13.265625 16.554687l17.039063 154.46875c-27.207032 8.183594-58.742188 14.761719-92.496094 16.3125v-165.644531c0-8.285156-6.714844-15-15-15s-15 6.714844-15 15v165.644531c-33.707031-1.558593-65.257812-8.15625-92.488281-16.359375l17.03125-154.425781c.90625-8.230469-5.03125-15.644531-13.265625-16.550781-8.222656-.90625-15.644532 5.03125-16.554688 13.261718l-16.304687 147.851563c-26.8125-10.121094-47.015625-20.613281-57.441407-26.445313l18.0625-163.492187c.910157-8.199219 2.085938-16.367187 3.519532-24.484375h22.441406c41.355469 0 75-33.644531 75-75v-75h150v75c0 41.355469 33.644531 75 75 75h22.441406c1.433594 8.117188 2.609375 16.277344 3.519532 24.472656zm-10.050782-54.472656h-15.910156c-24.8125 0-45-20.1875-45-45v-75h6.972656c1.667969 3.015625 35.621094 49.359375 53.9375 120zm0 0"/></svg>