<svg height="512pt" viewBox="0 0 512.00101 512" width="512pt" xmlns="http://www.w3.org/2000/svg"><path d="m300.964844 314.96875c0 8.28125-6.714844 14.996094-14.996094 14.996094-8.285156 0-15-6.714844-15-14.996094 0-8.285156 6.714844-15 15-15 8.28125 0 14.996094 6.714844 14.996094 15zm0 0"/><path d="m300.964844 374.960938c0 8.285156-6.714844 15-14.996094 15-8.285156 0-15-6.714844-15-15 0-8.28125 6.714844-14.996094 15-14.996094 8.28125 0 14.996094 6.714844 14.996094 14.996094zm0 0"/><path d="m300.964844 434.957031c0 8.28125-6.714844 14.996094-14.996094 14.996094-8.285156 0-15-6.714844-15-14.996094 0-8.285156 6.714844-15 15-15 8.28125 0 14.996094 6.714844 14.996094 15zm0 0"/><path d="m293.917969 74.992188c0-8.285157-6.714844-15-14.996094-15h-45.847656c-8.28125 0-14.996094 6.714843-14.996094 15 0 8.28125 6.714844 15 14.996094 15h45.847656c8.28125 0 14.996094-6.714844 14.996094-15zm0 0"/><path d="m30.238281 437.507812c1.242188 7.191407 7.480469 12.445313 14.78125 12.445313h44.996094v46.996094c0 8.285156 6.714844 15 15 15h301.96875c8.28125 0 15-6.714844 15-15v-46.996094h44.992187c7.300782 0 13.542969-5.253906 14.78125-12.445313l29.632813-171.789062c1.351563-8.125.453125-16.460938-2.644531-24.199219l-53.605469-131.511719c-4.945313-12.363281-15.949219-21.988281-23.941406-24.453124l-74.660157-23.007813-18.839843-37.675781c-7.671875-15.339844-23.09375-24.871094-40.246094-24.871094h-82.910156c-17.152344 0-32.574219 9.53125-40.246094 24.871094l-18.835937 37.675781-74.660157 23.007813c-7.722656 2.382812-18.890625 11.8125-23.910156 24.363281l-53.675781 131.691406c-3.058594 7.648437-3.960938 15.984375-2.59375 24.195313zm59.777344-17.550781h-32.363281l-5.175782-29.996093h37.539063zm364.328125 0h-32.363281v-29.996093h37.539062zm-100.625-326.886719 67.257812 20.726563c2.855469 1.679687 5.078126 4.265625 6.351563 7.445313l53.605469 131.511718c1.019531 2.546875 1.316406 5.324219.882812 7.949219l-17.125 99.261719h-42.707031v-134.988282c0-8.28125-6.71875-14.996093-15-14.996093-8.285156 0-15 6.714843-15 14.996093v256.976563h-150.984375v-159.902344c0-2.316406.546875-4.636719 1.582031-6.707031 2.957031-5.90625 108.097657-216.191406 111.136719-222.273438zm-152.589844-54.78125c2.558594-5.113281 7.699219-8.292968 13.414063-8.292968h82.910156c5.71875 0 10.859375 3.179687 13.417969 8.292968l18.351562 36.703126-73.222656 146.445312-73.222656-146.445312zm-170.097656 214.554688 53.675781-131.695312c1.238281-3.09375 3.460938-5.671876 6.316407-7.351563l67.253906-20.726563 80.953125 161.902344-23.476563 46.953125c-3.109375 6.21875-4.75 13.175781-4.75 20.125v159.902344h-90.992187v-256.976563c0-8.28125-6.714844-14.996093-14.996094-14.996093-8.285156 0-15 6.714843-15 14.996093v134.988282h-42.710937l-17.109376-99.175782c-.449218-2.710937-.148437-5.488281.835938-7.945312zm0 0"/></svg>