<svg height="512pt" viewBox="0 0 512 512" width="512pt" xmlns="http://www.w3.org/2000/svg"><path d="m507.117188 209.800781-50.613282-99.230469c-5.71875-11.382812-17.042968-20.152343-30.308594-23.46875l-72.238281-18.0625c4.417969-6.960937 6.988281-15.203124 6.988281-24.039062 0-24.8125-20.1875-45-45-45h-120c-24.8125 0-45 20.1875-45 45 0 8.890625 2.601563 17.183594 7.070313 24.171875l-70.636719 17.96875c-12.40625 3.15625-22.902344 11.46875-28.816406 22.820313l-53.421875 99.414062c-.035156.070312-.074219.140625-.109375.207031-4.328125 8.367188-5.910156 17.714844-4.566406 27.113281l29.640625 200.5c1.089843 7.355469 7.402343 12.804688 14.839843 12.804688h51.59375l25.902344 53.53125c2.503906 5.179688 7.75 8.46875 13.503906 8.46875h240c5.75 0 10.996094-3.289062 13.5-8.46875l25.90625-53.53125h51.59375c7.4375 0 13.75-5.449219 14.839844-12.804688l29.683594-200.796874c1.300781-9.105469-.1875-18.261719-4.296875-26.488282-.019531-.035156-.035156-.070312-.054687-.109375zm-416.171876 210.199219h-33.054687l-4.433594-30h37.488281zm275.59375 62h-221.1875l-15.484374-32h252.15625zm24.40625-62h-270v-52.914062c3.972657-4.523438 9.570313-7.074219 15.75-7.074219 7.160157 0 13.546876 3.417969 17.519532 9.375 9.488281 14.234375 25.371094 22.734375 42.480468 22.734375 17.109376 0 32.988282-8.5 42.480469-22.734375 3.972657-5.957031 10.359375-9.375 17.519531-9.375 7.160157 0 13.546876 3.417969 17.519532 9.375 9.488281 14.234375 25.371094 22.734375 42.480468 22.734375 17.109376 0 32.988282-8.5 42.480469-22.734375 3.890625-5.832031 10.136719-9.25 17.140625-9.371094 5.574219-.105469 10.710938 1.882813 14.628906 5.527344zm0-87.960938c-4.859374-1.410156-9.960937-2.113281-15.152343-2.019531-16.742188.292969-32.285157 8.789063-41.578125 22.726563-3.972656 5.957031-10.359375 9.375-17.519532 9.375-7.160156 0-13.546874-3.417969-17.519531-9.375-9.492187-14.234375-25.371093-22.734375-42.480469-22.734375-17.109374 0-32.992187 8.5-42.480468 22.734375-3.972656 5.957031-10.359375 9.375-17.519532 9.375-7.160156 0-13.546874-3.417969-17.519531-9.375-9.492187-14.234375-25.371093-22.734375-42.480469-22.734375-5.429687 0-10.730468.859375-15.75 2.484375v-55.410156c3.972657-4.523438 9.570313-7.074219 15.75-7.074219 7.160157 0 13.546876 3.417969 17.519532 9.375 9.488281 14.234375 25.371094 22.734375 42.480468 22.734375 17.109376 0 32.988282-8.5 42.480469-22.734375 3.972657-5.957031 10.359375-9.375 17.519531-9.375 7.160157 0 13.546876 3.417969 17.519532 9.375 9.488281 14.234375 25.371094 22.734375 42.480468 22.734375 17.109376 0 32.988282-8.5 42.480469-22.734375 3.890625-5.832031 10.136719-9.25 17.140625-9.371094 5.574219-.101563 10.710938 1.882813 14.628906 5.53125zm63.054688 87.960938h-33.054688v-30h37.488282zm27.78125-187.917969-18.910156 127.917969h-41.925782v-165c0-8.285156-6.714843-15-15-15-8.285156 0-15 6.714844-15 15v47.039062c-4.859374-1.410156-9.960937-2.113281-15.152343-2.019531-16.742188.292969-32.285157 8.789063-41.578125 22.726563-3.972656 5.957031-10.359375 9.375-17.519532 9.375-7.160156 0-13.546874-3.417969-17.519531-9.375-9.492187-14.234375-25.371093-22.734375-42.480469-22.734375-17.109374 0-32.992187 8.5-42.480468 22.734375-3.972656 5.957031-10.359375 9.375-17.519532 9.375-7.160156 0-13.546874-3.417969-17.519531-9.375-9.492187-14.234375-25.371093-22.734375-42.480469-22.734375-5.429687 0-10.730468.859375-15.75 2.484375v-47.496094c0-8.285156-6.714843-15-15-15-8.285156 0-15 6.714844-15 15v165h-41.925781l-18.867187-127.621094c-.4375-3.074218.074218-6.15625 1.480468-8.925781l53.40625-99.382813c.039063-.070312.074219-.140624.113282-.210937 1.964844-3.800781 5.472656-6.589844 9.625-7.644531l104.867187-26.679688c16.691407-4.242187 14.214844-29.535156-3.699219-29.535156-8.269531 0-15-6.730469-15-15s6.730469-15 15-15h120c8.269532 0 15 6.730469 15 15s-6.730468 15-15 15c-17.917968 0-20.390624 25.367188-3.636718 29.550781l106.613281 26.65625c4.6875 1.171875 9.019531 4.324219 10.777344 7.84375.019531.035157.035156.070313.054687.105469l50.605469 99.210938c1.355469 2.730468 1.84375 5.769531 1.421875 8.714843zm0 0"/></svg>