<svg height="512pt" viewBox="-62 0 512 512.001" width="512pt" xmlns="http://www.w3.org/2000/svg"><path d="m282.449219 30c-5.855469 0-11.445313 1.136719-16.582031 3.179688-5.203126-19.09375-22.6875-33.179688-43.417969-33.179688-20.722657 0-38.207031 14.085938-43.410157 33.183594-5.136718-2.046875-10.730468-3.183594-16.589843-3.183594-24.808594 0-44.996094 20.183594-44.996094 44.992188v166.007812h-7.664063l-31.035156-35.277344c-16.425781-18.667968-44.832031-20.488281-63.503906-4.058594-18.625 16.386719-20.441406 44.871094-4.058594 63.5l102.523438 116.535157c2.410156 2.742187 3.738281 6.261719 3.738281 9.910156v105.390625c0 8.285156 6.71875 15 15 15h210c8.285156 0 15-6.714844 15-15 0-10.660156 0-77.878906 0-87.457031 0-19.628907 4.640625-39.277344 13.417969-56.832031 11.007812-22.019532 16.582031-46.402344 16.582031-70.25v-147.46875c0-24.808594-20.183594-44.992188-44.992187-44.992188-5.257813 0-10.3125.90625-15.007813 2.570312v-17.578124c0-24.808594-20.1875-44.992188-45.003906-44.992188zm45.003906 452h-180v-31h180zm16.585937-142.707031c-10.851562 21.699219-16.585937 45.988281-16.585937 70.246093v11.460938h-90v-45c0-41.355469 33.648437-75.011719 75-75.011719h43.625c-1.972656 13.292969-6.035156 26.292969-12.039063 38.304688zm-1.578124-219.292969c8.265624 0 14.992187 6.726562 14.992187 14.992188v136.007812h-45c-57.894531 0-105 47.101562-105 105v45h-60v-29.390625c0-10.949219-3.980469-21.507813-11.214844-29.726563l-102.523437-116.535156c-5.460938-6.207031-4.851563-15.699218 1.355468-21.160156 6.214844-5.472656 15.683594-4.871094 21.160157 1.351562l35.515625 40.367188c2.847656 3.238281 6.949218 5.09375 11.261718 5.09375h29.445313c8.285156 0 15-6.714844 15-15v-181.007812c0-8.265626 6.730469-14.992188 14.996094-14.992188 8.273437 0 15.003906 6.726562 15.003906 14.992188v136.007812c0 8.285156 6.71875 15 15 15 8.285156 0 15-6.714844 15-15 0-52.089844 0-113.753906 0-166.007812 0-8.265626 6.730469-14.992188 15.007813-14.992188 8.269531 0 14.992187 6.726562 14.992187 14.992188v166.007812c0 8.285156 6.71875 15 15 15 8.285156 0 15-6.714844 15-15 0-50.195312 0-85.832031 0-136.007812 0-8.265626 6.730469-14.992188 14.996094-14.992188 8.273437 0 15.003906 6.726562 15.003906 14.992188v136.007812c0 8.285156 6.71875 15 15 15 8.285156 0 15-6.714844 15-15v-76.007812c0-8.265626 6.734375-14.992188 15.007813-14.992188zm0 0"/></svg>