<svg height="512pt" viewBox="0 -31 512 512" width="512pt" xmlns="http://www.w3.org/2000/svg"><path d="m0 15v330c0 57.898438 47.101562 105 105 105h320.445312c47.609376 0 86.554688-38.726562 86.554688-86.554688 0-35.597656-21.355469-67.144531-54.410156-80.367187l-67.300782-26.917969c-17.183593-6.875-28.289062-23.273437-28.289062-41.78125v-199.378906c0-8.285156-6.714844-15-15-15-10.40625 0-321.410156 0-332 0-8.285156 0-15 6.714844-15 15zm286.238281 403.953125c-9.21875-12.730469-14.238281-28.074219-14.238281-43.953125 0-24.160156 11.773438-46.839844 31.15625-60.855469 17.730469 9.914063 28.84375 28.550781 28.84375 49.300781 0 27.492188-19.722656 50.453126-45.761719 55.507813zm166.917969-104.808594c17.730469 9.914063 28.84375 28.550781 28.84375 49.300781 0 27.492188-19.722656 50.457032-45.761719 55.507813-9.21875-12.730469-14.238281-28.074219-14.238281-43.953125 0-24.160156 11.773438-46.839844 31.15625-60.855469zm-241.15625-284.144531h120v30c-19.542969 0-33.503906 9.308594-45.820312 17.519531-10.046876 6.695313-18.722657 12.480469-29.179688 12.480469s-19.132812-5.785156-29.179688-12.480469c-4.925781-3.28125-10.121093-6.730469-15.820312-9.699219zm0 73.027344c12.117188 8.074218 25.890625 16.972656 45 16.972656 19.542969 0 33.503906-9.308594 45.820312-17.519531 10.046876-6.695313 18.722657-12.480469 29.179688-12.480469v45c-19.542969 0-33.503906 9.308594-45.820312 17.519531-10.046876 6.695313-18.722657 12.480469-29.179688 12.480469s-19.132812-5.785156-29.179688-12.480469c-4.925781-3.28125-10.121093-6.730469-15.820312-9.699219zm0 75c12.117188 8.074218 25.890625 16.972656 45 16.972656 19.542969 0 33.503906-9.308594 45.820312-17.519531 10.046876-6.695313 18.722657-12.480469 29.179688-12.480469v49.378906c0 30.84375 18.507812 58.179688 47.144531 69.636719l43.140625 17.253906c-19.101562 19.421875-30.285156 45.871094-30.285156 73.730469 0 15.714844 3.523438 31.054688 10.140625 45h-61.222656c13.128906-15.179688 21.082031-34.957031 21.082031-56.554688 0-35.597656-21.355469-67.144531-54.410156-80.363281l-67.300782-26.921875c-17.183593-6.875-28.289062-23.273437-28.289062-41.78125zm-182-148.027344h152v30c-19.378906 0-33.824219 9.222656-46.570312 17.355469-10.628907 6.785156-19.808594 12.644531-30.429688 12.644531-10.457031 0-19.132812-5.785156-29.179688-12.480469-12.316406-8.210937-26.277343-17.519531-45.820312-17.519531zm0 60c10.457031 0 19.132812 5.785156 29.179688 12.480469 12.316406 8.210937 26.277343 17.519531 45.820312 17.519531 19.378906 0 33.824219-9.222656 46.570312-17.355469 10.628907-6.785156 19.808594-12.644531 30.429688-12.644531v45c-19.378906 0-33.824219 9.222656-46.570312 17.355469-10.628907 6.785156-19.808594 12.644531-30.429688 12.644531-10.457031 0-19.132812-5.785156-29.179688-12.480469-12.316406-8.210937-26.277343-17.519531-45.820312-17.519531zm0 75c10.457031 0 19.132812 5.785156 29.179688 12.480469 12.316406 8.210937 26.277343 17.519531 45.820312 17.519531 19.378906 0 33.824219-9.222656 46.570312-17.355469 10.628907-6.785156 19.808594-12.644531 30.429688-12.644531v49.378906c0 30.84375 18.507812 58.179688 47.144531 69.636719l43.140625 17.253906c-19.101562 19.421875-30.285156 45.871094-30.285156 73.730469 0 15.714844 3.523438 31.054688 10.140625 45h-102.140625v-15c0-57.898438-47.101562-105-105-105h-15zm0 165h15c41.355469 0 75 33.644531 75 75v15h-15c-41.355469 0-75-33.644531-75-75zm0 0"/></svg>