<svg height="512pt" viewBox="-34 0 512 512.00149" width="512pt" xmlns="http://www.w3.org/2000/svg"><path d="m235.355469.640625c-81.789063-7.804687-148.207031 56.777344-148.207031 134.367187v16h-42.148438c-12.613281 0-24.722656 5.339844-33.230469 14.652344-8.503906 9.3125-12.726562 21.859375-11.585937 34.414063.832031 9.164062 22.972656 253.613281 24.546875 271.003906 2.121093 23.328125 21.386719 40.921875 44.8125 40.921875h305.203125c23.425781 0 42.691406-17.59375 44.816406-40.929688 1.976562-21.824218 23.558594-260.101562 24.542969-270.988281 1.140625-12.5625-3.082031-25.105469-11.585938-34.417969-8.503906-9.3125-20.617187-14.65625-33.226562-14.65625h-42.148438v-10.839843c0-70.46875-51.71875-132.84375-121.789062-139.527344zm-118.207031 134.367187c0-60.328124 51.601562-110.578124 115.359374-104.503906 53.066407 5.0625 94.636719 53.230469 94.636719 109.660156v70.839844h-30v-75.996094c0-45.832031-41.0625-81.609374-87.566406-73.964843-35.59375 5.851562-62.429687 39.09375-62.429687 77.316406v72.644531h-30zm149.996093 0v15.996094h-90v-12.644531c0-23.703125 16.039063-44.21875 37.300781-47.714844 28.867188-4.753906 52.699219 17.636719 52.699219 44.363281zm122.539063 333.351563c-.707032 7.777344-7.128906 13.640625-14.9375 13.640625h-305.203125c-7.808594 0-14.230469-5.863281-14.9375-13.636719l-1.480469-16.363281h338.039062zm9.609375-287.355469c4.265625 0 8.199219 1.738282 11.074219 4.886719s4.25 7.222656 3.863281 11.476563l-20.347657 224.636718h-343.476562l-20.34375-224.640625c-.386719-4.25.984375-8.320312 3.859375-11.472656 2.878906-3.148437 6.8125-4.886719 11.078125-4.886719h42.148438v45c0 8.285156 6.714843 15 15 15h59.996093c8.285157 0 15-6.714844 15-15v-45h90v45c0 8.285156 6.714844 15 15 15h60c8.28125 0 15-6.714844 15-15v-45zm0 0"/><path d="m342.144531 301.003906h-239.996093c-8.285157 0-15 6.714844-15 15 0 8.28125 6.714843 15 15 15h15v15c0 8.28125 6.714843 15 15 15 8.28125 0 15-6.71875 15-15v-15h194.996093c8.28125 0 15-6.71875 15-15 0-8.285156-6.71875-15-15-15zm0 0"/></svg>