<svg height="511pt" viewBox="0 0 511 511.99933" width="511pt" xmlns="http://www.w3.org/2000/svg"><path d="m255.382812 235.640625c-5.855468-5.851563-15.351562-5.851563-21.203124 0-5.855469 5.855469-5.855469 15.351563 0 21.203125 5.851562 5.855469 15.347656 5.855469 21.203124 0 5.851563-5.851562 5.851563-15.347656 0-21.203125zm0 0"/><path d="m499.246094 12.988281c-16.71875-16.71875-45.328125-17.300781-85.027344-1.726562-30.839844 12.097656-68 33.832031-108.023438 63.117187l-18.988281-18.984375c-64.300781-64.304687-168.933593-64.304687-233.234375 0-64.304687 64.300781-64.304687 168.933594 0 233.238281l18.988282 18.988282c-29.042969 39.742187-50.40625 76.648437-62.042969 107.285156-14.808594 38.984375-13.828125 67.242188 2.917969 83.988281 30.40625 30.40625 92.890624 1.199219 130.175781-20.019531 56.535156-32.183594 122.449219-84.683594 185.601562-147.835938 10.644531-10.644531 21.101563-21.492187 31.226563-32.386718l74.792968 74.792968c9.390626 9.390626 25.59375 2.730469 25.59375-10.601562v-27.414062h27.414063c13.3125 0 20.039063-16.15625 10.601563-25.59375l-79.6875-79.683594c35.289062-44.945313 61.972656-87.152344 77.472656-122.648438 19.511718-44.675781 20.257812-76.476562 2.21875-94.515625zm-194.199219 102.652344 29.066406 29.0625c-2.109375 7.492187-4.535156 14.84375-7.238281 22.066406-.050781.125-.09375.25-.140625.375-5.292969 14.074219-11.703125 27.621094-19.207031 40.597657-2.191406-5.285157-5.425782-10.234376-9.714844-14.523438-6.78125-6.785156-15.210938-10.941406-24.011719-12.476562 12.976563-20.390626 23.433594-42.144532 31.246094-65.101563zm-92.046875 119.984375c-5.847656-5.847656-5.847656-15.359375 0-21.203125 5.84375-5.847656 15.355469-5.847656 21.203125 0 5.851563 5.855469 15.347656 5.855469 21.203125 0 5.84375-5.847656 15.355469-5.847656 21.203125 0 5.84375 5.84375 5.84375 15.355469 0 21.203125-5.855469 5.855469-5.855469 15.347656 0 21.203125 5.84375 5.84375 5.84375 15.355469 0 21.203125-5.847656 5.84375-15.359375 5.84375-21.203125 0-5.855469-5.855469-15.347656-5.859375-21.203125 0-5.847656 5.84375-15.359375 5.84375-21.203125 0-5.863281-5.859375-5.863281-15.34375 0-21.203125 5.851562-5.855469 5.851562-15.347656 0-21.203125zm-137.824219-159.027344c52.613281-52.613281 138.21875-52.613281 190.832031 0l15.089844 15.089844c-9.238281 32.78125-24.199218 63.054688-44.566406 90.261719-15.335938-4.578125-32.648438-.820313-44.734375 11.269531-12.089844 12.085938-15.84375 29.398438-11.269531 44.734375-27.207032 20.367187-57.484375 35.328125-90.261719 44.566406l-15.089844-15.089843c-52.613281-52.613282-52.613281-138.21875 0-190.832032zm131.144531 232.351563c-19.742187 11.417969-40.808593 20.320312-63.039062 26.585937l-29.066406-29.066406c22.953125-7.8125 44.703125-18.261719 65.089844-31.238281 1.574218 9.042969 5.863281 17.375 12.492187 24.003906 4.289063 4.289063 9.238281 7.519531 14.523437 9.714844zm102.09375.886719c-61.308593 61.308593-124.964843 112.085937-179.234374 142.976562-55.980469 31.863281-85.699219 33.316406-94.136719 24.878906-7.214844-7.214844-5.753907-26.703125 3.910156-52.140625 10.34375-27.238281 29.414063-60.355469 55.476563-96.464843l33.753906 33.757812c3.699218 3.695312 9.09375 5.230469 14.238281 3.941406 41.800781-10.449218 80.074219-29.097656 113.898437-55.46875 3.1875.699219 6.4375 1.070313 9.6875 1.070313 11.519532 0 23.035157-4.386719 31.804688-13.15625 11.246094-11.246094 15.277344-27.015625 12.101562-41.507813 1.464844-1.878906 2.894532-3.78125 4.3125-5.6875l25.398438 25.398438c-10.105469 10.894531-20.5625 21.753906-31.210938 32.402344zm144.03125-4.390626h-6.210937c-8.277344 0-14.992187 6.710938-14.992187 14.992188v6.210938l-100.03125-100.03125c5.378906-8.988282 10.289062-18.222657 14.699218-27.707032l42.996094 42.996094c.015625.011719.027344.027344.042969.039062zm-54.246093-96.65625-40.140625-40.136718c2.765625-8.121094 5.203125-16.390625 7.308594-24.808594 1.277343-5.109375-.222657-10.511719-3.945313-14.238281l-33.761719-33.761719c36.480469-26.378906 69.960938-45.859375 97.507813-56.664062 26.023437-10.207032 45.789062-12.070313 52.875-4.988282 13.5 13.5-3.09375 76.089844-79.84375 174.597656zm0 0"/></svg>