<svg height="512pt" viewBox="-16 0 512 512" width="512pt" xmlns="http://www.w3.org/2000/svg"><path d="m465 0c-8.285156 0-15 6.714844-15 15v45h-60v-45c0-8.285156-6.714844-15-15-15s-15 6.714844-15 15v45h-60v-45c0-8.285156-6.714844-15-15-15s-15 6.714844-15 15v45h-60v-45c0-8.285156-6.714844-15-15-15s-15 6.714844-15 15v45h-60v-45c0-8.285156-6.714844-15-15-15s-15 6.714844-15 15v226h-15c-41.355469 0-75 33.644531-75 75v181c0 8.285156 6.714844 15 15 15s15-6.714844 15-15v-46h60v46c0 8.285156 6.714844 15 15 15s15-6.714844 15-15v-46h60v46c0 8.285156 6.714844 15 15 15s15-6.714844 15-15v-46h60v46c0 8.285156 6.714844 15 15 15s15-6.714844 15-15v-46h60v46c0 8.285156 6.714844 15 15 15s15-6.714844 15-15c0-11.167969 0-102.164062 0-114.070312 8.832031 5.121093 19.074219 8.070312 30 8.070312 33.085938 0 60-26.914062 60-60 0-9.394531 0-310.769531 0-316 0-8.285156-6.714844-15-15-15zm-375 271h210v90h-210zm270 32.691406v117.308594h-330v-105c0-19.554688 12.539062-36.226562 30-42.421875v102.421875c0 8.285156 6.714844 15 15 15h240c8.285156 0 15-6.714844 15-15v-105.011719h38.757812c-5.5625 9.574219-8.757812 20.808594-8.757812 32.703125zm-180-62.691406v-91h210v91zm270 90c0 16.542969-13.457031 30-30 30s-30-13.457031-30-30v-27.308594c0-16.652344 12.152344-32.6875 29.964844-32.6875 16.960937 0 30.035156 13.71875 30.035156 29.996094zm0-82.035156c-8.984375-5.191406-19.273438-7.984375-30-7.96875v-105.996094c0-8.285156-6.714844-15-15-15h-240c-8.285156 0-15 6.714844-15 15v106h-30v-151h330zm0 0"/></svg>