<svg height="512pt" viewBox="0 0 512.0005 512" width="512pt" xmlns="http://www.w3.org/2000/svg"><path d="m508.394531 224.199219-54.054687-113.71875c-4.515625-10.929688-12.96875-19.496094-23.859375-24.164063l-52.382813-22.449218-17.871094-53.609376c-2.042968-6.125-7.773437-10.257812-14.230468-10.257812-16.769532 0-135.554688 0-180.992188 0-6.457031 0-12.1875 4.132812-14.230468 10.257812l-17.871094 53.609376-52.382813 22.449218c-10.917969 4.679688-19.390625 13.28125-23.898437 24.253906l-53.089844 115.144532c-.105469.234375-.210938.46875-.304688.707031-6.695312 16.738281-2.785156 35.785156 9.988282 48.558594l46.789062 46.554687v175.453125c0 8.28125 6.71875 14.996094 15 14.996094h360.992188c8.28125 0 14.996094-6.714844 14.996094-14.996094v-175.660156l47.820312-47.726563c12.746094-12.746093 16.65625-31.796874 9.960938-48.53125-.117188-.296874-.242188-.585937-.378907-.871093zm-217.886719-194.199219-18.34375 33.015625c-5.019531-1.941406-10.46875-3.015625-16.164062-3.015625s-11.144531 1.074219-16.164062 3.015625l-18.34375-33.015625zm-49.507812 451.988281h-150.996094v-40.75l116.558594-115.597656c5.914062-5.863281 5.925781-15.445313-.015625-21.316406l-78.597656-77.679688 22.242187-56.121093c3.054688-7.703126-.714844-16.417969-8.417968-19.472657-7.699219-3.050781-16.417969.71875-19.46875 8.417969l-25.898438 65.34375c-2.214844 5.59375-.878906 11.96875 3.398438 16.195312l74.875 74.003907-39.410157 39.085937c-6.957031-6.921875-81.21875-80.804687-100.871093-100.355468-4.171876-4.171876-5.503907-10.371094-3.433594-15.875l53.046875-115.050782c.105469-.234375.210937-.46875.304687-.707031 1.488282-3.722656 4.335938-6.640625 8.019532-8.21875l58.574218-25.101563c3.941406-1.6875 6.96875-4.980468 8.324219-9.046874l16.578125-49.738282h11.363281l29.515625 53.128906c-3.617187 6.476563-5.691406 13.933594-5.691406 21.867188v30c0 19.554688 12.542969 36.226562 30 42.417969zm-150.996094-83v-47.609375l23.964844 23.84375zm165.996094-248.992187c-8.269531 0-15-6.726563-15-15v-29.996094c0-8.273438 6.730469-15 15-15s15 6.726562 15 15v29.996094c0 8.269531-6.726562 15-15 15zm164.996094 248.78125-23.777344-23.777344 23.777344-23.730469zm56.613281-146.402344c-11.367187 11.347656-90.984375 90.8125-101.601563 101.410156l-38.796874-38.792968 74.042968-74.046876c4.230469-4.230468 5.542969-10.570312 3.339844-16.132812l-25.898438-65.34375c-3.050781-7.699219-11.769531-11.46875-19.472656-8.417969-7.699218 3.050781-11.46875 11.769531-8.417968 19.46875l22.265624 56.183594-77.679687 77.679687c-5.859375 5.859376-5.859375 15.355469 0 21.214844 13.625 13.621094 103.957031 103.957032 115.601563 115.601563v40.785156h-149.996094v-304.570313c17.460937-6.191406 30-22.867187 30-42.417968v-30c0-7.933594-2.070313-15.390625-5.691406-21.871094l29.515624-53.128906h10.363282l16.582031 49.742187c1.351563 4.066407 4.382813 7.355469 8.320313 9.042969l58.574218 25.105469c3.683594 1.578125 6.53125 4.496093 8.019532 8.214843.117187.292969.246093.585938.382812.867188l53.996094 113.605469c2.035156 5.492187.695312 11.65625-3.449219 15.800781zm0 0"/></svg>