<svg height="512pt" viewBox="-11 0 512 512" width="512pt" xmlns="http://www.w3.org/2000/svg"><path d="m280.257812 0h-240c-8.285156 0-15 6.714844-15 15v56.53125c-19.722656 40.878906-28.152343 86.285156-24.378906 131.554688l22.136719 267.652343c1.929687 23.136719 21.625 41.261719 44.84375 41.261719h187.546875c20.03125 0 38.863281-7.800781 53.070312-22.007812l131.820313-132.816407 44.328125-35.460937c6.078125-4.863282 7.425781-13.5625 3.113281-20.035156l-60-90c-4.878906-7.316407-14.988281-8.886719-21.855469-3.394532l-44.492187 35.59375-47.78125 31.859375 6.023437-72.644531c3.773438-45.277344-4.65625-90.6875-24.378906-131.566406v-56.527344c.003906-8.285156-6.714844-15-14.996094-15zm10.238282 180h-10.242188c-24.8125 0-45-20.1875-45-45v-45h35.511719c12.757813 28.351562 19.457031 58.992188 19.730469 90zm-235.238282-150h210v30h-210zm-5.511718 60h35.511718v45c0 24.8125-20.1875 45-45 45h-10.242187c.273437-31.003906 6.972656-61.648438 19.730469-90zm362.105468 151.933594 43.296876 64.945312-21.484376 17.1875-43.296874-64.945312zm-109.144531 165.304687 7.738281-93.332031 55.652344-37.105469 44.882813 67.328125-123.757813 124.691406c-8.5 8.5-19.800781 13.179688-31.816406 13.179688l-65.109375.003906c-.015625 0-.027344-.003906-.039063-.003906h-.042968c-3.988282-.011719-7.742188-1.566406-10.566406-4.390625-2.832032-2.832031-4.390626-6.601563-4.390626-10.605469v-332.003906c0-8.285156-6.71875-15-15-15-8.285156 0-15 6.714844-15 15v332.003906c0 5.1875.875 10.242188 2.550782 14.996094h-79.949219c-7.738281 0-14.304687-6.042969-14.945313-13.746094l-21.363281-258.253906h8.707031c41.355469 0 75-33.644531 75-75v-45h90v45c0 41.355469 33.644532 75 75 75h8.699219l-16.148437 194.761719c-.6875 8.253906 5.453125 15.503906 13.707031 16.1875 8.292969.6875 15.507813-5.488281 16.191406-13.710938zm0 0"/></svg>