<svg height="512pt" viewBox="-61 0 512 512" width="512pt" xmlns="http://www.w3.org/2000/svg"><path d="m315.8125 60.007812-16.582031-49.75c-2.042969-6.125-7.773438-10.257812-14.230469-10.257812-26.902344 0-157.679688 0-180 0-6.457031 0-12.1875 4.132812-14.230469 10.257812l-16.582031 49.75c-24.441406.433594-44.1875 20.449219-44.1875 44.992188v83.785156l-16.820312 16.820313c-8.5 8.5-13.179688 19.800781-13.179688 31.820312v157.148438c0 12.019531 4.679688 23.320312 13.179688 31.816406l16.820312 16.824219v53.785156c0 8.285156 6.714844 15 15 15h300c8.285156 0 15-6.714844 15-15v-53.785156l16.820312-16.820313c8.5-8.5 13.179688-19.800781 13.179688-31.820312v-157.148438c0-12.019531-4.679688-23.320312-13.179688-31.820312l-16.820312-16.820313v-83.785156c0-24.542969-19.746094-44.558594-44.1875-44.992188zm-86.304688-30.007812-18.34375 33.015625c-5.019531-1.941406-10.46875-3.015625-16.164062-3.015625s-11.144531 1.074219-16.164062 3.015625l-18.34375-33.015625zm-19.507812 75v30c0 8.269531-6.730469 15-15 15s-15-6.730469-15-15v-30c0-8.269531 6.730469-15 15-15s15 6.730469 15 15zm-175.605469 300.179688c-2.835937-2.832032-4.394531-6.601563-4.394531-10.605469v-157.148438c0-4.003906 1.558594-7.773437 4.394531-10.605469l16.820313-16.820312h53.785156c8.285156 0 15-6.714844 15-15s-6.714844-15-15-15h-45v-75c0-8.269531 6.730469-15 15-15h10c6.457031 0 12.1875-4.132812 14.230469-10.257812l16.582031-49.742188h10.363281l29.515625 53.132812c-3.621094 6.476563-5.691406 13.933594-5.691406 21.867188v30c0 19.554688 12.539062 36.226562 30 42.421875v244.578125h-128.785156zm295.605469 76.820312h-270v-30h270zm30-87.425781c0 4.003906-1.558594 7.773437-4.394531 10.605469l-16.820313 16.820312h-128.785156v-244.578125c17.460938-6.195313 30-22.867187 30-42.421875v-30c0-7.933594-2.070312-15.390625-5.691406-21.867188l29.515625-53.132812h10.363281l16.582031 49.742188c2.042969 6.125 7.773438 10.257812 14.230469 10.257812h10c8.269531 0 15 6.730469 15 15v75h-45c-8.285156 0-15 6.714844-15 15s6.714844 15 15 15h53.785156l16.820313 16.820312c2.835937 2.832032 4.394531 6.601563 4.394531 10.605469zm0 0"/></svg>