<svg height="512pt" viewBox="0 0 512.00111 512" width="512pt" xmlns="http://www.w3.org/2000/svg"><path d="m507.605469 25.609375-21.210938-21.214844c-4.808593-4.804687-12.242187-5.78125-18.125-2.375 0 0-402.183593 231.753907-406.15625 235.730469-5.328125 5.324219-5.878906 13.773438-1.289062 19.746094 4.585937 5.972656 12.890625 7.617187 19.410156 3.84375l7.386719-4.277344c6.441406-.996094 17.46875 2.449219 27.523437 12.507812 12.9375 12.9375 14.929688 27.464844 10.621094 31.804688-5.914063 5.886719-5.984375 15.824219.542969 21.730469 4.910156 4.453125 12.1875 5.183593 17.902344 1.660156 1.574218-.96875 1.605468-1.1875 4.03125-3.09375 3.597656-1.976563 10.597656-1.488281 18.367187 2.507813l-42.664063 42.660156c-16.371093-7.839844-37.105468-5.324219-51.226562 8.800781l-59.558594 59.558594c-17.546875 17.546875-17.546875 46.09375 0 63.640625 17.542969 17.546875 46.09375 17.546875 63.640625 0l59.558594-59.558594c14.121094-14.117188 16.644531-34.847656 8.800781-51.230469l42.660156-42.660156c4.042969 7.863281 4.492188 14.933594 2.4375 18.492187-.460937.558594-1.839843 2.230469-1.847656 2.242188-12.332031 14.992188 9.152344 33.191406 22.199219 20.121094 1.949219-1.945313 5.972656-2.535156 10.773437-1.578125 7.039063 1.410156 14.710938 5.851562 21.046876 12.1875 10.058593 10.058593 13.5 21.078125 12.511718 27.523437l-4.277344 7.386719c-3.773437 6.519531-2.128906 14.824219 3.84375 19.414063 5.96875 4.585937 14.417969 4.039062 19.746094-1.289063 3.972656-3.976563 235.726563-406.160156 235.726563-406.160156 3.40625-5.878907 2.433593-13.316407-2.375-18.121094zm-392.457031 392.460937-59.558594 59.558594c-5.851563 5.847656-15.367188 5.847656-21.214844 0-5.851562-5.851562-5.851562-15.367187 0-21.214844l59.558594-59.558593c5.859375-5.863281 15.347656-5.863281 21.214844 0 5.859374 5.863281 5.863281 15.351562 0 21.214843zm159.824218-28.292968c-3.089844-4.917969-6.875-9.683594-11.328125-14.136719-8.84375-8.84375-18.90625-15.039063-28.972656-18.421875l149.605469-181.175781c5.273437-6.386719 4.371094-15.839844-2.019532-21.117188-6.386718-5.273437-15.839843-4.371093-21.117187 2.015625l-145.773437 176.535156c-3.585938-7.503906-8.722657-14.835937-15.363282-21.476562-6.539062-6.539062-13.746094-11.625-21.128906-15.203125l177.671875-144.273437c6.433594-5.222657 7.414063-14.671876 2.191406-21.101563-5.222656-6.433594-14.671875-7.410156-21.101562-2.1875l-182.757813 148.402344c-3.359375-10.171875-9.585937-20.347657-18.519531-29.28125-4.453125-4.453125-9.21875-8.238281-14.132813-11.328125l243.617188-141.042969 50.171875 50.171875zm156.601563-270.488282-38.859375-38.859374 80.613281-46.671876 4.914063 4.917969c-5.019532 8.671875-41.585938 71.828125-46.667969 80.613281zm0 0"/></svg>