<svg height="511pt" viewBox="0 0 511.99899 511" width="511pt" xmlns="http://www.w3.org/2000/svg"><path d="m30.214844 439.046875c1.242187 7.195313 7.480468 12.449219 14.785156 12.449219h44.996094v46c0 8.285156 6.71875 15 15 15h302c8.285156 0 15-6.714844 15-15v-46h45c7.300781 0 13.542968-5.253906 14.78125-12.449219l29.609375-171.648437c1.378906-8.273438.421875-16.75-2.789063-24.5625l-55.207031-132.824219c-4.0625-9.882813-11.53125-18.015625-21.03125-22.90625l-44.238281-22.753907c-11.359375-37.46875-46.273438-63.851562-86.125-63.851562h-92c-39.851563 0-74.761719 26.382812-86.125 63.851562l-44.234375 22.757813c-9.5 4.886719-16.972657 13.019531-21.011719 22.851563l-55.246094 132.925781c-3.191406 7.761719-4.148437 16.234375-2.757812 24.59375zm59.78125-17.550781h-32.363282l-5.175781-30h37.539063zm0-59.996094h-42.714844l-10.347656-60h53.0625zm151 120.996094h-121v-91h121zm0-120.996094h-121v-60h121zm0-90h-121v-60h121zm151 210.996094h-121v-91h121zm0-120.996094h-121v-60h121zm0-90h-121v-60h121zm62.367187 149.996094h-32.367187v-30h37.542968zm10.347657-59.996094h-42.714844v-60h53.066406zm-1.625-150 17.785156 42.796875c1.0625 2.585937 1.382812 5.410156.9375 8.085937l-1.570313 9.117188h-58.242187v-60zm-131.089844-166c0-2.476562-.207032-4.902344-.59375-7.269531 14.414062 8.125 25.277344 22.066406 29.097656 38.949219-.085938 23.898437-19.445312 43.320312-43.503906 43.320312-8.28125 0-15 6.714844-15 15 0 8.28125 6.71875 15 15 15 34.039062 0 61.8125-22.90625 70.558594-52.703125l31.078124 15.988281c3.167969 1.628906 5.660157 4.339844 7.035157 7.6875l24.949219 60.027344h-179.621094v-91h16c24.8125 0 45-20.1875 45-45zm-106-15h61c8.273437 0 15 6.726562 15 15 0 8.269531-6.726563 15-15 15h-61c-8.523438 0-16-7.007812-16-15s7.476562-15 16-15zm-139.648438 90.917969c1.351563-3.292969 3.84375-6.003907 7.011719-7.632813l31.082031-15.988281c8.738282 29.773437 36.480469 52.703125 70.554688 52.703125 8.285156 0 15-6.71875 15-15 0-8.285156-6.714844-15-15-15-24.066406 0-43.414063-19.433594-43.503906-43.320312 3.824218-16.890626 14.695312-30.839844 29.125-38.960938-.402344 2.386719-.621094 4.816406-.621094 7.28125 0 12.089844 4.945312 23.472656 13.921875 32.054688 8.734375 8.347656 20.125 12.945312 32.078125 12.945312h15v91h-179.617188zm-55.246094 132.929687 17.808594-42.847656h41.085938v60h-58.238282l-1.558593-9.035156c-.460938-2.757813-.140625-5.582032.902343-8.117188zm0 0"/></svg>