<svg height="512pt" viewBox="0 -31 512.00021 512" width="512pt" xmlns="http://www.w3.org/2000/svg"><path d="m511.925781 103.511719c-.414062-4.175781-2.566406-7.992188-5.925781-10.511719l-120-90c-1.378906-1.03125-3.183594-1.953125-5.070312-2.464844-1.242188-.339844-2.609376-.535156-3.929688-.535156h-242c-3.300781 0-6.546875 1.160156-9 3l-120 90c-4.078125 3.058594-6.445312 8.085938-5.921875 13.457031-.0507812.507813-.078125 1.023438-.078125 1.542969v87c0 8.285156 6.714844 15 15 15s15-6.714844 15-15v-50.667969l30 33.609375v77.058594c0 8.285156 6.714844 15 15 15s15-6.714844 15-15v-43.449219l30 33.609375v69.839844c0 8.285156 6.714844 15 15 15s15-6.714844 15-15v-36.230469l30 33.609375v62.621094c0 8.285156 6.714844 15 15 15s15-6.714844 15-15v-29.011719l31 34.730469v54.28125c0 8.285156 6.714844 15 15 15s15-6.714844 15-15v-54.28125l31-34.730469v29.011719c0 8.285156 6.714844 15 15 15s15-6.714844 15-15v-62.621094l30-33.609375v36.230469c0 8.285156 6.714844 15 15 15s15-6.714844 15-15v-69.839844l30-33.609375v43.449219c0 8.285156 6.714844 15 15 15s15-6.714844 15-15v-77.058594l30-33.609375v50.667969c0 8.285156 6.714844 15 15 15s15-6.714844 15-15v-88c0-.34375.007812-2.660156-.074219-3.488281zm-171.140625-73.511719-73.179687 73.179688c-2.792969 2.792968-6.839844 4.394531-11.105469 4.394531s-8.316406-1.601563-11.160156-4.449219l-73.867188-73.125zm-207.140625 4.765625 90.535157 89.628906c8.5 8.496094 19.976562 13.179688 32.320312 13.179688s23.820312-4.683594 32.320312-13.179688l89.585938-89.589843 48.351562 36.261718-170.757812 191.113282-170.757812-191.113282zm122.355469 317.707031-218.929688-245.273437 24.085938-18.0625 183.660156 205.550781c2.84375 3.183594 6.914063 5.003906 11.183594 5.003906 4.273438 0 8.339844-1.820312 11.1875-5.003906l183.660156-205.554688 24.085938 18.066407zm0 0"/></svg>