<svg height="512pt" viewBox="0 0 511 512" width="512pt" xmlns="http://www.w3.org/2000/svg"><path d="m106.449219 512h300c8.285156 0 15-6.714844 15-15v-47h46c7.4375 0 13.753906-5.449219 14.839843-12.804688l29.652344-200.574218c1.332032-9.320313-.25-18.671875-4.578125-27.035156-.035156-.070313-.070312-.140626-.105469-.207032l-54.074218-100.667968c-5.367188-10.308594-14.375-18.050782-25.378906-21.804688l-70.6875-24.117188-27.25-54.496093c-4.332032-8.664063-13.378907-8.261719-13.480469-8.292969-15.03125 0-104.964844 0-119.867188 0-.003906 0-.007812 0-.007812 0h-.0625c-5.652344 0-10.882813 3.226562-13.414063 8.292969l-27.25 54.496093-70.6875 24.117188c-11.003906 3.753906-20.011718 11.496094-25.378906 21.800781l-54.074219 100.671875c-.035156.066406-.070312.136719-.109375.203125-4.324218 8.367188-5.910156 17.714844-4.578125 27.039063.007813.050781.015625.097656.023438.144531l30.640625 200.5c1.121094 7.324219 7.421875 12.734375 14.828125 12.734375h45v47c0 8.285156 6.71875 15 15 15zm315-314.566406 17.363281-52.082032 41.949219 78.101563c1.410156 2.765625 1.921875 5.847656 1.492187 8.855469l-18.878906 127.691406h-41.925781zm0 192.566406h37.492187l-4.4375 30h-33.054687zm-30-90h-30v-30h30zm0-60h-30v-30h30zm-61.582031-98.292969 24.140624-48.28125 63.289063 21.59375-21.660156 64.980469h-49.1875c-8.28125 0-15 6.714844-15 15v120c0 8.285156 6.71875 15 15 15h45v152h-120v-352.730469l38.292969 19.148438c7.425781 3.710937 16.425781.683593 20.125-6.710938zm-.1875-66.707031-19.9375 39.875-31.386719-15.691406 36.234375-54.355469zm-41.257813-45-31.972656 47.957031-31.96875-47.957031zm-90.113281 14.828125 36.234375 54.355469-31.382813 15.691406-19.941406-39.875zm-39.414063 48.597656 24.140625 48.28125c3.703125 7.414063 12.714844 10.414063 20.125 6.707031l38.289063-19.144531v352.730469h-120v-152h45c8.285156 0 15-6.714844 15-15v-120c0-8.285156-6.714844-15-15-15h-49.1875l-21.65625-64.976562zm-7.445312 176.574219v30h-30v-30zm-30-30v-30h30v30zm-90.800781-7.679688c-.425782-3.058593.089843-6.121093 1.492187-8.867187l41.949219-78.101563 17.359375 52.082032v162.566406h-41.285157zm28.683593 187.679688-4.585937-30h36.703125v30zm0 0"/></svg>