<svg height="512pt" viewBox="-61 0 512 512" width="512pt" xmlns="http://www.w3.org/2000/svg"><path d="m45 512c24.8125 0 45-20.1875 45-45 0-11.515625-4.355469-22.03125-11.496094-30 7.144532-7.96875 11.496094-18.484375 11.496094-30v-76h210v76c0 11.515625 4.355469 22.03125 11.496094 30-7.140625 7.96875-11.496094 18.484375-11.496094 30 0 24.8125 20.1875 45 45 45s45-20.1875 45-45c0-11.515625-4.355469-22.03125-11.496094-30 7.140625-7.96875 11.496094-18.484375 11.496094-30v-152c0-96.203125-68.589844-172.699219-154.324219-190.773438 2.769531-5.835937 4.324219-12.351562 4.324219-19.226562 0-24.8125-20.1875-45-45-45s-45 20.1875-45 45c0 6.9375 1.578125 13.511719 4.394531 19.382812-84.125 18.507813-150.796875 95.976563-154.242187 190.535157 0 .027343-.003906.054687-.003906.082031v.015625c-.0898442 2.503906-.148438 151.984375-.148438 151.984375 0 11.515625 4.355469 22.03125 11.496094 30-7.140625 7.96875-11.496094 18.484375-11.496094 30 0 24.8125 20.1875 45 45 45zm300-30c-8.269531 0-15-6.730469-15-15s6.730469-15 15-15 15 6.730469 15 15-6.730469 15-15 15zm-150-452c8.269531 0 15 6.730469 15 15s-6.730469 15-15 15-15-6.730469-15-15 6.730469-15 15-15zm-5.085938 60.078125c62.394532-1.859375 116.390626 30.59375 146.039063 78.996094-.941406 1.179687-1.839844 2.402343-2.683594 3.671875-8.304687 12.457031-26.652343 12.582031-35.039062 0-20.171875-30.257813-64.738281-30.335938-84.960938 0-8.304687 12.457031-26.652343 12.582031-35.039062 0-9.492188-14.234375-25.371094-22.734375-42.480469-22.734375s-32.988281 8.5-42.480469 22.734375c-8.296875 12.449218-26.644531 12.589844-35.039062 0-.648438-.972656-1.332031-1.910156-2.039063-2.828125 28.609375-46.492188 77.859375-78.164063 133.722656-79.839844zm-148.171874 109.070313c23.003906 20.570312 59.179687 16.203124 76.488281-9.761719 3.972656-5.957031 10.355469-9.375 17.519531-9.375 7.160156 0 13.546875 3.417969 17.519531 9.375 20.167969 30.253906 64.734375 30.339843 84.960938 0 8.300781-12.453125 26.648437-12.582031 35.039062 0 17.433594 26.152343 53.992188 30.382812 76.949219 9.339843 4.769531 13.191407 7.835938 27.035157 9.101562 41.273438h-327.875c1.816407-14.199219 5.324219-27.894531 10.296876-40.851562zm-11.742188 70.851562h330v137c0 8.269531-6.730469 15-15 15s-15-6.730469-15-15v-91c0-8.285156-6.714844-15-15-15h-240c-8.285156 0-15 6.714844-15 15v91c0 8.269531-6.730469 15-15 15s-15-6.730469-15-15zm15 182c8.269531 0 15 6.730469 15 15s-6.730469 15-15 15-15-6.730469-15-15 6.730469-15 15-15zm0 0"/></svg>