<svg height="512pt" viewBox="0 0 512 512" width="512pt" xmlns="http://www.w3.org/2000/svg"><path d="m3.609375 181.601562c-.023437.050782-.046875.105469-.070313.15625-3.066406 7.269532-4.171874 15.253907-3.191406 23.082032.003906.035156.007813.070312.011719.101562l30.769531 233.023438c.984375 7.460937 7.34375 13.035156 14.871094 13.035156h45v46c0 8.285156 6.714844 15 15 15h301c8.28125 0 15-6.714844 15-15v-46h45c7.550781 0 13.921875-5.613281 14.878906-13.101562l29.773438-233.363282c.941406-7.535156-.054688-15.242187-2.898438-22.359375l-52.660156-129.828125c-4.925781-12.316406-14.96875-21.785156-27.550781-25.980468l-76.800781-25.597657c-1.402344-.464843-3.15625-.769531-4.742188-.769531h-181c-1.640625 0-3.535156.347656-4.90625.824219l-74.054688 25.628906c-12.007812 4.15625-21.734374 13.242187-26.703124 24.933594zm87.390625 239.398438h-31.851562l-3.960938-30h35.8125zm301 61h-271v-62.507812c34.191406-6.96875 60-37.273438 60-73.492188v-46h151v46c0 36.21875 25.808594 66.523438 60 73.492188zm61.789062-61h-31.789062v-30h35.617188zm-123.320312-391c-7.0625 34.191406-37.769531 60-74.472656 60-36.21875 0-66.519532-25.808594-73.488282-60zm-242.601562 33.304688c.023437-.050782.046874-.105469.070312-.15625 1.652344-3.914063 4.898438-6.957032 8.914062-8.34375l56.136719-19.429688c4.03125 20.410156 13.992188 38.710938 28.007813 53.03125v76.59375c0 8.285156 6.71875 15 15 15 8.285156 0 15-6.714844 15-15v-55.144531c13.648437 6.5 28.90625 10.144531 45 10.144531 16.476562 0 32.082031-3.742188 46-10.410156v55.410156c0 8.285156 6.71875 15 15 15 8.285156 0 15-6.714844 15-15v-76.886719c14.054687-14.328125 24.023437-32.597656 28.035156-52.957031l59.023438 19.675781c4.191406 1.398438 7.542968 4.554688 9.210937 8.726563l52.660156 129.828125c.9375 2.351562 1.269531 4.921875.960938 7.394531l-20.441407 160.21875h-39.445312v-166c0-8.285156-6.71875-15-15-15-8.285156 0-15 6.714844-15 15v193.421875c-17.460938-6.195313-30-22.867187-30-42.421875v-61c0-8.285156-6.71875-15-15-15h-181c-8.285156 0-15 6.714844-15 15v61c0 19.554688-12.542969 36.226562-30 42.421875v-193.421875c0-8.285156-6.71875-15-15-15-8.285156 0-15 6.714844-15 15v166h-39.773438l-21.117187-159.929688c-.3125-2.570312.046875-5.1875 1.039063-7.578124zm0 0"/></svg>