<svg height="512pt" viewBox="-61 0 512 512" width="512pt" xmlns="http://www.w3.org/2000/svg"><path d="m135 0h-60c-8.285156 0-15 6.714844-15 15v211c0 24.8125-20.1875 45-45 45-8.285156 0-15 6.714844-15 15v211c0 8.285156 6.714844 15 15 15h360c8.285156 0 15-6.714844 15-15v-211c0-8.285156-6.714844-15-15-15-24.8125 0-45-20.1875-45-45v-90c0-21.4375 0-107.773438 0-121 0-8.285156-6.714844-15-15-15h-60c-8.285156 0-15 6.714844-15 15v76h-90v-76c0-8.285156-6.714844-15-15-15zm-45 30h30v106c0 8.269531-6.730469 15-15 15s-15-6.730469-15-15c0-10.417969 0-95.5625 0-106zm270 452h-330v-30h330zm-90-452h30v106c0 8.269531-6.730469 15-15 15s-15-6.730469-15-15zm-60 91h30v15c0 24.8125 20.1875 45 45 45 5.257812 0 10.304688-.914062 15-2.578125v47.578125c0 36.21875 25.808594 66.523438 60 73.492188v122.507812h-150v-92.507812c34.191406-6.96875 60-37.273438 60-73.492188v-30c0-8.285156-6.714844-15-15-15h-45zm-15 180c-24.8125 0-45-20.1875-45-45v-15h90v15c0 24.8125-20.1875 45-45 45zm-15-180v90h-45c-8.285156 0-15 6.714844-15 15v30c0 36.21875 25.808594 66.523438 60 73.492188v92.507812h-150v-122.507812c34.191406-6.96875 60-37.273438 60-73.492188v-47.578125c4.695312 1.664063 9.742188 2.578125 15 2.578125 24.8125 0 45-20.1875 45-45v-15zm0 0"/></svg>