<svg height="512pt" viewBox="0 0 512 512" width="512pt" xmlns="http://www.w3.org/2000/svg"><path d="m467 120h-75v-75c0-24.8125-20.1875-45-45-45h-182c-24.8125 0-45 20.1875-45 45v75h-75c-24.8125 0-45 20.1875-45 45v302c0 24.8125 20.1875 45 45 45h422c24.8125 0 45-20.1875 45-45 0-14.367188 0-288.066406 0-302 0-24.8125-20.1875-45-45-45zm-317-75c0-8.269531 6.730469-15 15-15h182c8.269531 0 15 6.730469 15 15v15h-212zm0 45h212v30h-212zm-105 392c-8.269531 0-15-6.730469-15-15v-23.785156l38.785156 38.785156zm437-15c0 8.269531-6.730469 15-15 15h-23.785156l38.785156-38.785156zm0-66.214844-81.214844 81.214844h-289.570312l-81.214844-81.214844v-151.078125l181 77.203125v20.089844c0 24.8125 20.1875 45 45 45s45-20.1875 45-45v-20.089844l181-77.207031zm-241-53.785156v-15h30v15c0 8.269531-6.730469 15-15 15s-15-6.730469-15-15zm241-129.910156-199.066406 84.910156h-53.867188l-199.066406-84.910156v-52.089844c0-8.269531 6.730469-15 15-15h422c8.269531 0 15 6.730469 15 15zm0 0"/></svg>