<svg height="512pt" viewBox="-31 0 512 512" width="512pt" xmlns="http://www.w3.org/2000/svg"><path d="m147.695312 123.941406c-9.386718 10.207032-20.457031 21.820313-33.09375 30.476563-51.988281 35.613281-84.601562 95.203125-84.601562 160.582031v49.578125c-17.460938 6.195313-30 22.867187-30 42.421875v60c0 24.8125 20.1875 45 45 45h360c24.8125 0 45-20.1875 45-45v-60c0-19.554688-12.539062-36.226562-30-42.421875v-49.578125c0-64.191406-31.632812-124.324219-84.617188-160.769531-12.488281-8.589844-23.191406-19.738281-33.085937-30.417969-9.3125-10.050781-20.433594-18.097656-32.621094-23.816406 9.519531-10.621094 15.324219-24.640625 15.324219-39.996094 0-33.085938-26.914062-60-60-60s-60 26.914062-60 60c0 15.359375 5.808594 29.382812 15.332031 40.003906-12.214843 5.742188-23.339843 13.832032-32.636719 23.9375zm272.304688 283.058594v60c0 8.269531-6.730469 15-15 15h-45v-45c0-8.285156-6.714844-15-15-15s-15 6.714844-15 15v45h-90v-45c0-8.285156-6.714844-15-15-15s-15 6.714844-15 15v45h-90v-45c0-8.285156-6.714844-15-15-15s-15 6.714844-15 15v45h-45c-8.269531 0-15-6.730469-15-15v-60c0-8.269531 6.730469-15 15-15h360c8.269531 0 15 6.730469 15 15zm-33.414062-125.308594c2.238281 10.855469 3.414062 22.003906 3.414062 33.308594v47h-330v-47c0-11.878906 1.277344-23.585938 3.742188-34.949219 9.535156 13.828125 25.167968 22.070313 42.007812 22.070313 17.109375 0 32.988281-8.496094 42.480469-22.734375 3.972656-5.957031 10.355469-9.375 17.519531-9.375 7.160156 0 13.546875 3.417969 17.519531 9.375 9.488281 14.238281 25.371094 22.734375 42.480469 22.734375s32.988281-8.496094 42.480469-22.734375c3.972656-5.957031 10.355469-9.375 17.519531-9.375 7.160156 0 13.546875 3.417969 17.519531 9.375 9.488281 14.238281 25.371094 22.734375 42.480469 22.734375 16.160156 0 31.21875-7.589844 40.835938-20.429688zm-161.585938-251.691406c16.542969 0 30 13.457031 30 30s-13.457031 30-30 30-30-13.457031-30-30 13.457031-30 30-30zm-55.222656 114.25c14.171875-15.410156 34.300781-24.25 55.222656-24.25 20.890625 0 41.042969 8.820312 55.285156 24.195312 10.558594 11.398438 23.078125 24.421876 38.097656 34.753907 25.914063 17.820312 45.777344 42.335937 57.941407 70.335937-5.070313 3.578125-9.480469 8.097656-13.054688 13.460938-3.972656 5.957031-10.359375 9.375-17.523437 9.375-7.160156 0-13.546875-3.417969-17.519532-9.375-9.488281-14.238282-25.371093-22.734375-42.480468-22.734375-17.105469 0-32.988282 8.496093-42.476563 22.734375-3.972656 5.957031-10.359375 9.375-17.523437 9.375-7.160156 0-13.546875-3.417969-17.519532-9.375-9.488281-14.238282-25.371093-22.734375-42.480468-22.734375-17.105469 0-32.988282 8.496093-42.476563 22.734375-3.972656 5.957031-10.359375 9.375-17.523437 9.375-7.160156 0-13.546875-3.417969-17.515625-9.375-3.800781-5.699219-8.648438-10.507813-14.222657-14.21875 12.183594-27.632813 31.898438-51.789063 57.546876-69.359375 15.238281-10.4375 27.71875-23.496094 38.222656-34.917969zm0 0"/></svg>