<svg height="512pt" viewBox="0 -106 512 512" width="512pt" xmlns="http://www.w3.org/2000/svg"><path d="m497 210h-50.109375c-9.6875-22.605469-66.898437-156.09375-74.285156-173.335938-9.398438-21.929687-32.148438-36.664062-56.605469-36.664062-32.839844 0-50.269531 14.976562-59.109375 27.539062-.304687.433594-.601563.871094-.894531 1.308594-.277344-.417968-.558594-.828125-.851563-1.242187-8.84375-12.59375-26.285156-27.605469-59.144531-27.605469-24.234375 0-46.058594 14.390625-55.605469 36.664062-7.363281 17.179688-64.640625 150.835938-74.285156 173.335938h-51.109375c-8.285156 0-15 6.714844-15 15 0 28.785156 11.714844 49.609375 34.820312 61.886719 16.839844 8.945312 39.457032 13.113281 71.179688 13.113281h301c31.636719 0 54.121094-4.183594 70.761719-13.160156 22.71875-12.253906 34.238281-33.0625 34.238281-61.839844 0-8.285156-6.714844-15-15-15zm-329.03125-161.515625c4.8125-11.230469 15.816406-18.484375 28.03125-18.484375 33.957031 0 40.398438 21.410156 43.769531 41.476562.902344 5.386719 1.558594 9.28125 4.625 13.027344 2.847657 3.476563 7.109375 5.496094 11.605469 5.496094s8.757812-2.019531 11.605469-5.496094c3.078125-3.757812 3.734375-7.675781 4.648437-13.09375 3.375-20.035156 9.8125-41.410156 43.746094-41.410156 12.429688 0 24.367188 7.601562 29.03125 18.484375l43.507812 101.515625h-264.078124zm-56.363281 131.515625h289.789062l12.859375 30h-315.507812zm295.394531 90h-301c-50.511719 0-68.859375-11.542969-74.164062-30.011719h448.355468c-5.238281 18.46875-23.347656 30.011719-73.191406 30.011719zm0 0"/></svg>