<svg height="512pt" viewBox="-32 0 512 512" width="512pt" xmlns="http://www.w3.org/2000/svg"><path d="m418.546875 347.941406 28.25-141.253906c1.71875-8.582031.90625-17.414062-2.34375-25.539062l-52.453125-131.128907c-4.097656-10.246093-11.789062-18.605469-21.65625-23.535156l-49.796875-24.902344c-2.03125-1.023437-4.453125-1.582031-6.710937-1.582031h-180c-2.355469 0-4.75.597656-6.707032 1.582031l-49.796875 24.898438c-9.867187 4.933593-17.558593 13.292969-21.65625 23.539062l-52.453125 131.128907c-3.2499998 8.125-4.0625 16.957031-2.34375 25.539062l28.25 141.253906c0 .003906.003906.007813.003906.015625 1.398438 7.011719 7.660157 12.046875 14.691407 12.046875.019531 0 .039062-.003906.058593-.003906h31.824219l-16.753906 135.15625c-.53125 4.265625.796875 8.554688 3.644531 11.777344s6.941406 5.066406 11.238282 5.066406h300c4.300781 0 8.394531-1.84375 11.242187-5.066406s4.175781-7.511719 3.644531-11.777344l-16.753906-135.15625h31.867188c7.152343 0 13.308593-5.046875 14.710937-12.058594zm-134.710937-317.941406-60 80-60-80zm-195 224.074219-9.410157 75.925781h-23.289062l-25.839844-129.195312c-.574219-2.863282-.304687-5.804688.78125-8.515626l52.449219-131.128906c1.367187-3.414062 3.929687-6.199218 7.21875-7.84375l38.601562-19.300781c86.679688 115.550781 82.765625 110.472656 83.882813 111.589844l94.394531 94.394531c-1.359375 0-182.605469 0-188.789062 0v-75c0-8.285156-6.714844-15-15-15-8.28125 0-15 6.714844-15 15zm1.976562 227.925781 26.28125-212h52.472656l-19.144531 38.292969c-3.703125 7.410156-.703125 16.417969 6.707031 20.125 7.425782 3.710937 16.425782.6875 20.125-6.707031l18.441406-36.882813 45.664063 68.492187c4.617187 6.925782 13.9375 8.734376 20.800781 4.160157 6.894532-4.59375 8.753906-13.90625 4.160156-20.800781l-44.457031-66.679688h108.71875l26.28125 212zm277.4375-152-9.414062-75.925781v-119.074219c0-8.285156-6.714844-15-15-15-8.28125 0-15 6.714844-15 15v83.785156l-85.191407-85.191406 74.683594-99.578125 38.601563 19.300781c3.289062 1.644532 5.851562 4.429688 7.21875 7.84375l52.449218 131.132813c1.085938 2.707031 1.355469 5.648437.78125 8.511719l-25.839844 129.195312zm0 0"/></svg>