<svg height="512pt" viewBox="0 0 512 512" width="512pt" xmlns="http://www.w3.org/2000/svg"><path d="m508.195312 180.695312-56.292968-109.511718c-1.996094-39.589844-34.828125-71.183594-74.902344-71.183594h-30c-38.5625 0-72.382812 20.507812-90.929688 51.089844-18.371093-30.582032-51.871093-51.089844-90.070312-51.089844h-30c-41.355469 0-75 33.644531-75 75v1.175781l-56.882812 104.042969c-.257813.472656-.492188.960938-.699219 1.460938-3.070313 7.417968-4.097657 15.535156-2.976563 23.480468l30.6875 233.789063c.976563 7.46875 7.339844 13.050781 14.871094 13.050781h45v45c0 8.285156 6.714844 15 15 15h301c8.285156 0 15-6.714844 15-15v-45h45c7.554688 0 13.929688-5.617188 14.878906-13.113281l29.6875-233.957031c1.257813-9.007813-.527344-18.703126-3.371094-24.234376zm-417.195312 241.304688h-31.839844l-3.941406-30h35.78125zm0-60h-39.714844l-21.113281-160.824219c-.003906-.058593-.011719-.113281-.019531-.171875-.351563-2.433594-.089844-4.917968.746094-7.230468l37.738281-69.027344c5.191406 10.605468 12.839843 19.890625 22.363281 27.023437zm150 120h-120v-316.1875l120 40zm0-307.8125-119.230469-39.742188c-18.402343-6.136718-30.769531-23.292968-30.769531-42.691406 0-2.769531 0-12 0-16.753906 0-24.8125 20.1875-45 45-45h30c41.355469 0 75 33.644531 75 75zm151 307.8125h-121v-276.164062l121-40.046876zm-.75-347.5625-120.25 39.796875v-69.234375c0-41.355469 34.09375-75 76-75h30c24.8125 0 45 20.1875 45 45v16.753906c0 19.394532-12.359375 36.542969-30.75 42.683594zm62.53125 287.5625h-31.78125v-30h35.589844zm28.066406-221.183594c-.011718.078125-.019531.15625-.03125.234375l-20.421875 160.949219h-39.394531v-210.230469c9.925781-7.433593 17.820312-17.199219 23.011719-28.367187l36.121093 70.273437c.8125 2.28125 1.058594 4.738281.714844 7.140625zm0 0"/><path d="m347 452c8.285156 0 15-6.714844 15-15v-90c0-8.285156-6.714844-15-15-15s-15 6.714844-15 15v90c0 8.285156 6.714844 15 15 15zm0 0"/><path d="m166 452c8.285156 0 15-6.714844 15-15v-90c0-8.285156-6.714844-15-15-15s-15 6.714844-15 15v90c0 8.285156 6.714844 15 15 15zm0 0"/></svg>