<svg height="512pt" viewBox="0 -46 512.00009 512" width="512pt" xmlns="http://www.w3.org/2000/svg"><path d="m30.011719 404.417969c-.160157 4.074219 1.347656 8.042969 4.175781 10.984375 2.828125 2.9375 6.734375 4.601562 10.8125 4.601562h45c7.867188 0 14.398438-6.074218 14.960938-13.917968l11.367187-157.34375 49.722656 123.96875c11.164063 28.289062 39.074219 47.292968 69.449219 47.292968h222.503906c52.886719 0 74.386719-68.308594 30.152344-99.023437-.34375-.238281-.699219-.464844-1.0625-.675781-50.664062-29.195313-109.425781-51.382813-160.632812-63.675782-43.8125-10.695312-107.820313-66.039062-142-111.183594-.25-.332031-.523438-.636718-.792969-.941406-26.257813-49.757812-63.546875-101.992187-130.960938-142.371094-6.601562-3.953124-15.125-2.269531-19.730469 3.898438-1.34375 1.804688-32.976562 44.8125-32.976562 98.96875 0 17.378906 36.550781 132.53125 30.011719 299.417969zm289.386719-118.628907c14.582031 3.496094 27.667968 7.222657 39.902343 11.335938 1.140625 1.398438 1.90625 2.773438 1.585938 3.519531-1.9375 4.539063-15.871094 12.851563-39.296875 11.519531-52.335938-2.972656-75.171875-35.234374-97.800782-82.472656 29.804688 25.621094 64.160157 48.417969 95.609376 56.097656zm-269.679688-250.09375c76.273438 50.472657 106.488281 117.566407 133.300781 177.113282 29.082031 64.585937 55.777344 124.699218 136.867188 129.308594 26.046875 1.484374 58.679687-6.507813 68.585937-29.679688.660156-1.542969 1.191406-3.097656 1.59375-4.664062 28.625 10.722656 55.921875 23.515624 81.449219 38.183593 19.378906 13.996094 9.941406 44.046875-13.511719 44.046875h-222.503906c-18.167969 0-34.863281-11.375-41.578125-28.382812l-49.804687-124.183594c-4.644532-11.574219-15.523438-18.839844-27.722657-18.839844-14.742187 0-27.246093 10.261719-29.714843 25.078125-.074219.457031-.128907.917969-.164063 1.382813l-10.46875 144.945312h-15.566406c3.792969-156.902344-29.253907-270.980468-30.480469-285.214844.058594-28.996093 11.734375-54.820312 19.71875-69.09375zm0 0"/></svg>