<svg height="512pt" viewBox="0 -61 512 512" width="512pt" xmlns="http://www.w3.org/2000/svg"><path d="m55.023438 287.804688c1.703124 1.238281 3.628906 2.640624 5.199218 3.851562 3.480469 54.800781 49.589844 98.335938 105.777344 98.335938h181c55.746094 0 101.480469-43.675782 104.796875-98.605469 15.71875-12.660157 60.203125-35.445313 60.203125-102.996094 0-71.230469-54.378906-128.390625-142.28125-128.390625h-68.71875v-15c0-24.8125-20.1875-45-45-45s-45 20.1875-45 45v15h-68.71875c-87.871094 0-142.28125 57.117188-142.28125 128.386719 0 59.414062 35.792969 85.4375 55.023438 99.417969zm291.976562 72.1875h-181c-36.699219 0-67.40625-25.816407-74.46875-60.007813h328.957031c-6.96875 34.191406-37.269531 60.007813-73.488281 60.007813zm-106-314.992188c0-8.273438 6.730469-15 15-15s15 6.726562 15 15v15h-30zm-98.71875 45h44.351562c-21.832031 22.003906-35.628906 54.191406-35.628906 89.996094 0 8.285156 6.714844 15 14.996094 15 8.285156 0 15-6.714844 15-15 0-49.625 33.644531-89.996094 75-89.996094 41.90625 0 76 40.371094 76 89.996094 0 8.285156 6.714844 15 15 15 8.28125 0 14.996094-6.714844 14.996094-15 0-35.804688-13.925782-67.992188-35.96875-89.996094h43.691406c67.160156 0 112.28125 39.539062 112.28125 98.390625 0 53.777344-34.84375 67-51.355469 81.605469h-349.492187c-15.328125-12.90625-51.152344-29.421875-51.152344-81.609375 0-58.847657 45.121094-98.386719 112.28125-98.386719zm0 0"/></svg>