<svg height="512pt" viewBox="0 0 512 512.0005" width="512pt" xmlns="http://www.w3.org/2000/svg"><path d="m490.066406 21.933594c-29.246094-29.246094-76.835937-29.246094-106.082031 0l-65.472656 65.472656c-16.726563-7.964844-37.386719-5.042969-51.214844 8.785156l-169.730469 169.730469c-14.121094 14.117187-16.644531 34.851563-8.800781 51.234375l-66.832031 66.828125c-29.246094 29.246094-29.246094 76.835937 0 106.082031s76.835937 29.246094 106.082031 0l66.847656-66.847656c16.734375 7.96875 37.378907 5.054688 51.214844-8.785156l53.042969-53.039063 10.605468 10.609375c17.546876 17.542969 46.101563 17.546875 63.648438 0 17.550781-17.550781 17.550781-46.101562 0-63.652344l-10.605469-10.605468 53.039063-53.039063c13.828125-13.832031 16.75-34.492187 8.785156-51.214843l65.472656-65.476563c29.246094-29.246094 29.246094-76.832031 0-106.082031zm-383.265625 446.914062c-17.589843 17.589844-46.058593 17.59375-63.652343 0-17.546876-17.546875-17.546876-46.097656 0-63.648437l65.027343-65.023438 21.214844 21.214844-43.808594 43.808594c-5.859375 5.859375-5.859375 15.359375 0 21.214843 5.859375 5.859376 15.355469 5.859376 21.214844 0l43.808594-43.804687 21.21875 21.214844zm118.0625-75.628906c-5.847656 5.847656-15.367187 5.847656-21.214843 0-10.269532-10.269531-74.53125-74.53125-84.867188-84.867188-5.863281-5.863281-5.863281-15.351562 0-21.214843l32.953125-32.953125c-.289063 27.265625 9.9375 54.625 30.695313 75.382812 19.835937 19.835938 46.207031 30.761719 74.257812 30.761719.359375 0 .71875-.011719 1.078125-.015625zm84.863281-84.867188v.003907c-29.039062 29.03125-76.5 29.574219-106.078124-.003907-29.246094-29.246093-29.246094-76.832031 0-106.078124 29.316406-29.316407 76.761718-29.320313 106.078124 0 29.097657 29.09375 29.515626 76.554687.011719 106.070312zm42.433594 42.433594c-5.851562 5.851563-15.367187 5.851563-21.21875 0l-10.605468-10.609375 10.605468-10.609375 10.609375-10.605468 10.609375 10.605468c5.847656 5.851563 5.847656 15.367188 0 21.21875zm42.433594-127.296875-32.90625 32.902344c.003906-.359375.015625-.71875.015625-1.078125 0-28.050781-10.925781-54.421875-30.761719-74.257812-19.832031-19.832032-46.203125-30.757813-74.253906-30.757813-.359375 0-.71875.011719-1.078125.015625l32.902344-32.90625c5.847656-5.847656 15.363281-5.847656 21.214843 0l84.867188 84.867188c5.847656 5.847656 5.847656 15.367187 0 21.214843zm74.253906-116.6875-63.648437 63.648438-21.214844-21.21875 42.433594-42.429688c5.855469-5.859375 5.855469-15.359375 0-21.21875-5.859375-5.855469-15.359375-5.855469-21.21875 0l-42.433594 42.433594-21.214844-21.214844 63.648438-63.648437c17.546875-17.550782 46.097656-17.546875 63.648437 0 17.546875 17.546875 17.546875 46.101562 0 63.648437zm0 0"/><path d="m277.902344 234.097656c-5.855469-5.859375-15.355469-5.859375-21.214844 0l-21.214844 21.214844c-5.859375 5.859375-5.859375 15.355469 0 21.214844l21.214844 21.214844c5.855469 5.859374 15.355469 5.863281 21.214844 0 5.859375-5.855469 5.859375-15.355469 0-21.214844l-10.605469-10.605469 10.605469-10.609375c5.859375-5.859375 5.859375-15.359375 0-21.214844zm0 0"/></svg>