<svg height="512pt" viewBox="-49 0 512 512.00036" width="512pt" xmlns="http://www.w3.org/2000/svg"><path d="m0 497c0 8.285156 6.714844 15 15 15h300c8.285156 0 15-6.714844 15-15v-61c0-36.113281 11.71875-71.625 33-100l41.597656-55.460938c11.082032-14.777343 12.835938-34.214843 4.574219-50.738281-14.808594-29.617187-54.191406-35.992187-77.59375-12.589843l-1.578125 1.578124v-53.789062c0-96.324219-82.789062-173.605469-181.160156-164.226562-85.382813 8.140624-148.839844 84.21875-148.839844 170.671874zm151.6875-466.363281c51.625-4.921875 97.566406 18.9375 124.234375 57.46875-2.292969 1.457031-4.535156 2.941406-6.742187 4.414062-10.046876 6.699219-18.722657 12.480469-29.179688 12.480469s-19.132812-5.785156-29.179688-12.480469c-12.316406-8.210937-26.277343-17.519531-45.820312-17.519531s-33.503906 9.308594-45.820312 17.519531c-10.046876 6.699219-18.722657 12.480469-29.179688 12.480469s-19.132812-5.785156-29.179688-12.480469c-1.753906-1.171875-3.53125-2.351562-5.339843-3.519531 22.089843-32.234375 56.664062-54.589844 96.207031-58.363281zm-110.546875 84.828125c1.003906.664062 2.015625 1.335937 3.039063 2.015625 12.316406 8.210937 26.277343 17.519531 45.820312 17.519531s33.503906-9.308594 45.820312-17.519531c10.046876-6.695313 18.722657-12.480469 29.179688-12.480469s19.132812 5.785156 29.179688 12.480469c12.316406 8.210937 26.277343 17.519531 45.820312 17.519531s33.503906-9.304688 45.820312-17.519531c1.476563-.984375 2.933594-1.953125 4.371094-2.890625 4.8125 11.9375 7.925782 24.566406 9.175782 37.507812-11.832032 3.210938-21.433594 9.582032-30.1875 15.421875-10.046876 6.699219-18.722657 12.480469-29.179688 12.480469s-19.132812-5.785156-29.179688-12.480469c-12.316406-8.210937-26.277343-17.519531-45.820312-17.519531s-33.503906 9.308594-45.820312 17.519531c-10.046876 6.699219-18.722657 12.480469-29.179688 12.480469s-19.132812-5.785156-29.179688-12.480469c-8.601562-5.734375-18.011718-11.992187-29.554687-15.253906 1.695313-12.847656 5.066406-25.203125 9.875-36.800781zm-11.140625 68.394531c4.644531 2.269531 9.246094 5.335937 14.179688 8.621094 12.316406 8.210937 26.277343 17.519531 45.820312 17.519531s33.503906-9.308594 45.820312-17.519531c10.046876-6.695313 18.722657-12.480469 29.179688-12.480469s19.132812 5.785156 29.179688 12.480469c12.316406 8.210937 26.277343 17.519531 45.820312 17.519531s33.503906-9.308594 45.820312-17.519531c4.933594-3.285157 9.535157-6.351563 14.179688-8.621094v63.230469c-14.566406 11.324218-32.484375 21.277344-55.875 31.167968-38.953125 16.476563-64.125 54.449219-64.125 96.742188 0 8.285156 6.714844 15 15 15s15-6.714844 15-15c0-30.214844 17.980469-57.339844 45.8125-69.113281 70.195312-29.6875 84.242188-57.765625 96.976562-67.464844 8.898438-8.894531 23.898438-6.503906 29.550782 4.792969 3.144531 6.292968 2.476562 13.695312-1.742188 19.324218l-41.597656 55.460938c-22.1875 29.582031-35.578125 65.683594-38.429688 103h-270.570312zm0 267.140625h270v31h-270zm0 0"/></svg>