<svg height="512pt" viewBox="0 -31 512 512" width="512pt" xmlns="http://www.w3.org/2000/svg"><path d="m497 360h-15v-165c0-1.203125-.199219-2.648438-.449219-3.636719l-29.550781-118.207031v-58.15625c0-8.285156-6.714844-15-15-15h-362c-8.285156 0-15 6.714844-15 15v58.15625l-29.550781 118.207031c-.226563.898438-.449219 2.445313-.449219 3.636719v165h-15c-8.285156 0-15 6.714844-15 15v60c0 8.285156 6.714844 15 15 15h211c8.285156 0 15-6.714844 15-15 0-11.085938 0-170.292969 0-180 0-8.269531 6.730469-15 15-15s15 6.730469 15 15v180c0 8.285156 6.714844 15 15 15h211c8.285156 0 15-6.714844 15-15v-60c0-8.285156-6.714844-15-15-15zm-49.675781-181.855469c-43.695313-8.320312-77.878907-43.796875-84.25-88.144531h62.214843zm-360.613281-88.15625h62.214843c-6.371093 44.347657-40.554687 79.835938-84.25 88.15625zm124.289062 330.011719h-181v-30h181zm30-207.421875c-17.460938 6.195313-29.988281 22.867187-29.988281 42.421875l-.003907 105h-151.007812v-150.839844c62.480469-6.9375 112.222656-56.683594 119.160156-119.160156h61.839844zm-151-152.578125v-30h332v30zm181 152.578125v-122.578125h61.839844c6.9375 62.480469 56.679687 112.222656 119.160156 119.160156v150.839844h-151v-105c0-19.554688-12.539062-36.226562-30-42.421875zm211 207.421875h-181v-30h181zm0 0"/></svg>