<svg height="511pt" viewBox="1 -76 511.999 511" width="511pt" xmlns="http://www.w3.org/2000/svg"><path d="m407.496094 6.632812-124.550782 52.960938h-53.890624l-124.511719-52.945312c-49.613281-21.261719-104.542969 15.257812-104.542969 68.9375v118.015624c0 35.628907 24.753906 65.402344 58.210938 73.113282.421874.882812.933593 1.738281 1.546874 2.554687l63.242188 84.324219c6.390625 8.519531 19.335938 7.828125 24.824219-1.222656l86.621093-142.777344h43.109376l86.621093 142.777344c5.484375 9.042968 18.429688 9.746094 24.824219 1.222656 67.027344-89.550781 63.5625-84.3125 64.789062-86.882812 33.503907-7.71875 58.210938-37.523438 58.210938-73.109376v-118.015624c0-53.890626-55.160156-90.105469-104.503906-68.953126zm-273.808594 311.207032-38.925781-51.902344c3.292969-.902344 6.550781-2.015625 9.742187-3.386719l84.527344-35.941406zm77.3125-203.988282-71.304688-23.503906c-7.863281-2.589844-16.347656 1.679688-18.941406 9.546875-2.59375 7.871094 1.683594 16.347657 9.550782 18.945313l47.785156 15.753906-47.785156 15.753906c-7.867188 2.59375-12.144532 11.074219-9.550782 18.941406 2.601563 7.886719 11.09375 12.136719 18.941406 9.550782l71.304688-23.507813v29.339844l-118.273438 50.289063c-29.5 12.644531-62.726562-8.765626-62.726562-41.359376v-118.015624c0-32.0625 32.71875-54.222657 62.765625-41.347657l118.234375 50.277344zm60 65.742188h-30c0-10.128906 0-79.875 0-90h30zm107.3125 138.246094-55.34375-91.230469 84.488281 35.925781c3.207031 1.375 6.476563 2.492188 9.785157 3.402344zm103.6875-124.238282c0 32.144532-32.78125 54.191407-62.765625 41.34375l-118.234375-50.273437v-29.339844l71.304688 23.507813c7.851562 2.585937 16.339843-1.664063 18.941406-9.550782 2.59375-7.867187-1.683594-16.347656-9.550782-18.941406l-47.785156-15.753906 47.785156-15.753906c7.867188-2.59375 12.144532-11.074219 9.550782-18.941406-2.59375-7.871094-11.078125-12.144532-18.941406-9.550782l-71.304688 23.503906v-29.335937l118.273438-50.292969c29.496093-12.640625 62.726562 8.761719 62.726562 41.363282zm0 0"/></svg>